<?xml version="1.0" encoding="UTF-8"?>
<svg id="Layer_1" data-name="Layer 1" xmlns="http://www.w3.org/2000/svg" viewBox="0 0 30.26 30.05">
  <defs>
    <style>
      .cls-1 {
        fill: #bf9ef9;
      }

      .cls-2 {
        fill: #7428f5;
      }
    </style>
  </defs>
  <path class="cls-1" d="M22.59,15.14c.62,1.19.63,2.43,0,3.61-2.07,1.07-5.39.56-3.61-1.81.06-.42.52-.58,1.38-.47-.5-1.56,1.38-2.53,2.24-1.34Z"/>
  <path class="cls-1" d="M24.62,11.3c.65,1.17.67,2.69,0,3.84-.58.65-1.44.63-2.03,0-.98-2.5-.75-5.49,2.03-3.84Z"/>
  <path class="cls-1" d="M24.62,11.3c-1.78-2.23,1.5-3.12,2.26-1.47.14.3.1,1.55-.46,1.47-.51.65-1.29.63-1.81,0Z"/>
  <path class="cls-1" d="M15.13,7.46c.46.12.6.66.42,1.6,1.31-.22,2.13.3,1.82,1.69,1.33-.04,2.07.45,2.01,1.91l1.33-.02c1.21,1.47.5,3.1-1.51,2.71.18.73.11,1.26-.23,1.58-.01.19-.07.44-.22.46-1.7.18-2.51.15-2.29-1.84-1.87.3-1.89-.43-1.81-2.03-1.68.26-1.91-.24-1.82-1.81-1.37.28-2.06-.05-2.06-.98-.13-.57-.12-3.2.51-3.29,1.2-.68,2.63-.68,3.84,0Z"/>
  <path class="cls-1" d="M26.43,1.81c.42.11.59.65.49,1.6.76-.18,1.21-.03,1.32.43.18.05.43.12.45.26.07.58.11,4.41,0,4.83l-.45.33c-.09.69-1.66.66-1.81,0-.74-.37-.71-3.18,0-3.61-.11.44-.53.59-1.25.45-.06,1.83-.37,1.92-2.17,1.84.23,1.71-.04,2.17-1.8,2.03.52,2.83-3.21,2.32-2.67-.22-1.53-.02-2.26-.14-2.08-1.88-.74.16-1.18.02-1.32-.42-.58-.62-.58-1.18,0-1.81l.22-.45,3.14.05c-.1-1.6.26-2,1.87-1.91-.18-.83-.03-1.34.42-1.54,1.82-.69,3.83-.69,5.65,0Z"/>
  <path class="cls-2" d="M26.43,11.3c.03,1.28-.02,2.56,0,3.84-.6.01-1.21-.02-1.81,0,.01-1.28-.03-2.56,0-3.84.6-.01,1.21.01,1.81,0Z"/>
  <path class="cls-2" d="M26.43,1.81c.38,0,1.96-.07,2.03,0,.1.1-.1,1.71,0,1.81.08.08,1.47-.06,1.81,0v5.87c-.33.06-1.73-.08-1.81,0-.1.1.1,1.71,0,1.81-.07.07-1.66,0-2.03,0,0-.35.11-1.77-.13-1.81h-1.68c0,.6.02,1.21,0,1.81-.68.01-1.36-.01-2.03,0,0,1.28.01,2.56,0,3.84-.35,0-1.74-.06-1.81,0-.09.09.1,1.72,0,1.81-.06.06-1.46,0-1.81,0-.05-.62-.39-1.21-.13-1.82.32-.45,1.81-.09,1.94-.21.08-.08-.06-1.48,0-1.81-.34-.06-1.72.09-1.81,0-.06-.06-.04-1.6-.25-1.78-.2-.17-1.67.09-1.78-.02-.1-.1.1-1.71,0-1.81s-1.71.1-1.81,0c-.07-.07,0-1.66,0-2.03.35,0,1.74-.06,1.81,0,.09.09-.1,1.71,0,1.81.13.13,1.62-.24,1.94.21.66.95-1.09,2.24,1.91,1.82.06-.33-.08-1.73,0-1.81.1-.1,1.71.1,1.81,0s-.1-1.94,0-2.04,1.94.1,2.04,0c.08-.08-.06-1.47,0-1.81h1.81v3.61h1.81V3.84c-.33-.06-1.73.08-1.81,0-.07-.07.01-1.65,0-2.03Z"/>
  <path class="cls-2" d="M11.29,7.46c-.01.53-.14,3.7,0,3.84.1.1,1.94-.1,2.04,0s-.1,1.71,0,1.81,1.71-.1,1.81,0-.1,1.94,0,2.04,1.71-.1,1.81,0-.1,1.71,0,1.81c.07.07,1.71,0,2.03,0,.05.59-.04,1.21,0,1.81,1.2-.02,2.41.02,3.61,0,0,.68,0,1.36,0,2.03-.08.11-.29-.23-.34-.23h-5.31c-.09,0,.17-1.77-.13-1.81h-1.68c-.06.34.08,1.73,0,1.81-.1.1-1.71-.1-1.81,0-.08.08.06,1.68,0,2.04.6,0,1.21,0,1.81,0,0-.6,0-1.21,0-1.81h1.81s0,1.81,0,1.81c-.6,0-1.21,0-1.81,0,0,.34.06,1.74,0,1.81-.09.1-1.71-.1-1.81,0s.1,1.94,0,2.04-1.71-.1-1.81,0c-.08.08.06,1.47,0,1.81h-3.84c-.09,0,.17,1.77-.13,1.81h-3.71c0-.6,0-1.21,0-1.81.6-.01,1.21,0,1.81,0v-1.81s-1.81,0-1.81,0c0,.6,0,1.21,0,1.81-.33,0-1.96.07-2.03,0-.1-.1.1-1.71,0-1.81-.08-.08-1.47.06-1.81,0v-4.07c0-.09,1.81.09,1.81,0v-3.61c.36-.06,1.95.08,2.03,0,.1-.1-.1-1.94,0-2.04s1.71.1,1.81,0-.1-1.71,0-1.81,1.71.1,1.81,0-.1-1.71,0-1.81c.07-.07,1.71,0,2.03,0,.01.6-.01,1.21,0,1.81h1.81s0-1.81,0-1.81c-.6,0-1.21.01-1.81,0-.04-1.88.03-3.77,0-5.65.6,0,1.21.02,1.81,0Z"/>
  <path class="cls-2" d="M20.78,1.81c-.01.38.07,1.96,0,2.03-.1.1-1.71-.1-1.81,0s.1,1.71,0,1.81c-.14.14-3.26,0-3.84,0,.01-.68-.01-1.36,0-2.03h3.61c.06-.33-.08-1.73,0-1.81.07-.07,1.66,0,2.03,0Z"/>
  <path class="cls-2" d="M20.78,1.81c.02-.6-.01-1.21,0-1.81h5.52c.24.03.12,1.45.13,1.81-1.87-.04-3.78-.04-5.65,0Z"/>
  <path class="cls-2" d="M24.62,15.14c0,1.2,0,2.41,0,3.61-.68,0-1.36-.01-2.03,0,.01-1.2,0-2.41,0-3.61.68-.02,1.36.02,2.03,0Z"/>
  <path class="cls-2" d="M15.13,5.65c-.01.6-.01,1.21,0,1.81-1.27-.03-2.57-.03-3.84,0,.01-.6-.01-1.21,0-1.81,1.28-.01,2.56.02,3.84,0Z"/>
  <path class="cls-1" d="M3.84,24.4c.04-1.8-.03-3.62,0-5.42h1.81c.06.33-.08,1.73,0,1.81s1.47-.06,1.81,0v3.5s.31.34.34.34h3.5v1.58h-5.42c-.06-.33.08-1.73,0-1.81-.07-.07-1.71,0-2.03,0-.01.6.01,1.21,0,1.81h-1.81s0-1.81,0-1.81c.6,0,1.21.01,1.81,0Z"/>
  <path class="cls-1" d="M9.49,16.94c-.6,0-1.21,0-1.81,0v-1.81s1.81,0,1.81,0c.01.6-.02,1.21,0,1.81.6,0,1.21,0,1.81,0v1.68c-.03.24-1.46.13-1.81.13-.02.6.01,1.21,0,1.81h-1.81s0-1.81,0-1.81c.6,0,1.21,0,1.81,0,.02-.6.02-1.21,0-1.81Z"/>
  <rect class="cls-1" x="11.52" y="15.14" width="1.58" height="1.81"/>
  <rect class="cls-1" x="11.52" y="22.59" width="1.58" height="1.81"/>
  <rect class="cls-1" x="5.87" y="16.94" width="1.58" height="1.81"/>
</svg>