<?xml version="1.0" encoding="UTF-8"?>
<svg id="INSTA" xmlns="http://www.w3.org/2000/svg" viewBox="0 0 511 495.06">
  <defs>
    <style>
      .cls-1 {
        fill: #5313c3;
      }

      .cls-2 {
        fill: #9620f0;
      }

      .cls-3 {
        fill: #87fc00;
      }

      .cls-4 {
        fill: #ff00c0;
      }

      .cls-5 {
        fill: #00e810;
      }

      .cls-6 {
        fill: #ffec92;
      }

      .cls-7 {
        fill: #feb6dd;
      }

      .cls-8 {
        fill: #fe28c1;
      }

      .cls-9 {
        fill: #bc06a9;
      }

      .cls-10 {
        fill: #7410e8;
      }
    </style>
  </defs>
  <path class="cls-1" d="M479.06,79.87c.08-15.95-.06-31.95,0-47.91h15.97v15.97h15.97v95.81h-15.97v15.97h-31.94v15.97c-5.31.03-10.66-.04-15.97,0,0,5.31,0,10.66,0,15.97-5.31.02-10.66-.05-15.97,0-.03,10.63-.05,21.31,0,31.94,5.31.04,10.66-.03,15.97,0,.02,5.31-.05,10.66,0,15.97,5.31.04,10.66-.03,15.97,0,.02,5.31-.05,10.66,0,15.97,5.31.04,10.66-.03,15.97,0,.03,10.63-.06,21.31,0,31.94,1.64,0,15.97-.8,15.97,0v111.78c-5.31,0-10.66-.01-15.97,0-.05,10.63.04,21.31,0,31.94-5.31.02-10.66-.05-15.97,0-.04,5.31.03,10.66,0,15.97-5.31.02-10.66-.05-15.97,0-.04,5.31.03,10.66,0,15.97-10.63.03-21.31-.06-31.94,0,0,5.31,0,10.66,0,15.97-15.95.02-31.96-.04-47.91,0v15.97h-175.66c-3.27-1.64-3.13-14.04,0-15.97-15.74,2.99-32.18,3.1-47.91,0-3.27-1.64-3.13-14.04,0-15.97-5.24,2.75-10.72,2.71-15.97,0,2.46,4.62,2.61,9.91,1.13,14.84,4.93-1.48,10.22-1.33,14.84,1.13,3.27,1.64,3.13,14.04,0,15.97h-31.94v-31.94c5.31-.02,10.66.05,15.97,0-.04-5.31.03-10.66,0-15.97,5.38-2.46,10.59-2.48,15.97,0,3.27,1.64,3.13,14.04,0,15.97,10.58-2.78,21.35-2.74,31.94,0,5.3-1.97,10.67-1.96,15.97,0,3.27,1.64,3.13,14.04,0,15.97,5.3-1.96,10.67-1.96,15.97,0,5.3-1.96,10.67-1.97,15.97,0,5.3-1.96,10.67-1.96,15.97,0,5.3-1.96,10.67-1.96,15.97,0,5.3-1.96,10.67-1.96,15.97,0,5.3-1.96,10.67-1.96,15.97,0,5.3-1.96,10.67-1.96,15.97,0,5.3-1.96,10.67-1.96,15.97,0,5.3-1.97,10.67-1.96,15.97,0,5.3-1.96,10.67-1.96,15.97,0,5.3-1.96,10.67-1.95,15.97,0-3.27-1.64-3.13-14.04,0-15.97,10.65-2.48,21.28-2.46,31.94,0,5.38-2.48,10.58-2.46,15.97,0-3.27-1.64-3.13-14.04,0-15.97,5.24-2.77,10.72-2.73,15.97,0,5.24-2.75,10.72-2.71,15.97,0-2.71-5.25-2.76-10.73,0-15.97,5.23-2.76,10.72-2.71,15.97,0-2.71-5.25-2.75-10.73,0-15.97-2.73-5.25-2.77-10.73,0-15.97,5.3-1.97,10.67-1.95,15.97,0-2.46-5.38-2.48-10.59,0-15.97-2.41-26.6-2.41-53.25,0-79.84-2.48-5.38-2.46-10.58,0-15.97-1.64,3.27-14.04,3.13-15.97,0-2.77-5.24-2.73-10.72,0-15.97-2.75-5.24-2.71-10.72,0-15.97-5.25,2.71-10.73,2.76-15.97,0-2.76-5.23-2.71-10.72,0-15.97-5.25,2.71-10.73,2.76-15.97,0-2.77-5.24-2.73-10.72,0-15.97-5.25,2.71-10.73,2.75-15.97,0-5.38,2.46-10.59,2.48-15.97,0,2.04,3.6,3.24,15.01,1.14,17.11s-13.51.9-17.11-1.14c1.97,5.3,1.97,10.67,0,15.97,5.25-2.71,10.73-2.75,15.97,0l2,.92v45.79l-2,1.19c-5.24,2.75-10.72,2.71-15.97,0-2.9-15.75-3.01-32.16,0-47.91-5.25,2.71-10.73,2.75-15.97,0,2.04,3.6,3.24,15.01,1.14,17.11s-13.51.9-17.11-1.14c2.26,3.39,2.91,15.92,1.01,17.21-2.33,1.58-8.03.72-11.66.09-1.8-.31-3.56-.8-5.32-1.33-2.77-5.24-2.73-10.72,0-15.97,5.38-2.47,10.58-2.45,15.97,0-2.71-5.25-2.76-10.73,0-15.97,5.3-1.99,10.67-1.99,15.97,0-2.71-5.25-2.75-10.73,0-15.97,5.23-2.76,10.72-2.71,15.97,0-1.96-5.3-1.95-10.67,0-15.97,5.3-1.96,10.67-1.97,15.97,0-2.71-5.25-2.75-10.73,0-15.97,4.62-2.46,9.91-2.61,14.84-1.13-1.48-4.93-1.33-10.22,1.13-14.84,5.24-2.75,10.72-2.71,15.97,0-2.48-5.38-2.5-10.59,0-15.97,5.24-2.75,10.72-2.71,15.97,0-1.58-4.87-2.39-9.84-1.13-14.84-4.99,1.26-9.97.45-14.84-1.13,2.71,5.25,2.75,10.73,0,15.97-5.24,2.75-10.72,2.71-15.97,0,2.71,5.25,2.76,10.73,0,15.97-5.38,2.5-10.59,2.49-15.97,0,2.71,5.25,2.75,10.73,0,15.97-5.38,2.51-10.58,2.49-15.97,0,2.5,5.38,2.48,10.58,0,15.97-5.3,1.95-10.67,1.95-15.97,0,2.48,5.38,2.5,10.59,0,15.97-4.62,2.46-9.91,2.61-14.84,1.13,1.48,4.93,1.33,10.22-1.13,14.84-5.24,2.75-10.72,2.71-15.97,0,2.77,5.24,2.73,10.72,0,15.97-5.38,2.49-10.59,2.51-15.97,0-.53-1.76-1.02-3.52-1.33-5.32-.63-3.63-1.49-9.33.09-11.66,1.29-1.9,13.82-1.25,17.21,1.01-2.51-4.69-2.58-9.73-1-14.74-10.26,1.29-20.88,1.53-30.94-1.23,2.76,10.05,2.52,20.68,1.23,30.94,5-1.58,10.04-1.51,14.74,1,1.58,4.87,2.39,9.84,1.13,14.84,4.99-1.26,9.97-.45,14.84,1.13,2.52,4.7,2.58,9.72.97,14.72,15.55-1.11,31.58-1.88,46.94,1.25,2.94,5.5,2.14,11.29.8,17.29-21.58,1.3-43.18.89-64.68-1.32-2.46-4.62-2.61-9.91-1.13-14.84-4.93,1.48-10.22,1.33-14.84-1.13-2.46-4.62-2.61-9.91-1.13-14.84-4.93,1.48-10.22,1.33-14.84-1.13-2.63-16.13-2.49-32.51-1.3-48.79,5.95-1.31,11.8-2.01,17.27.88-2.94-5.5-2.14-11.29-.8-17.29,21.58-1.3,43.18-.89,64.68,1.32-1.95-5.3-1.95-10.67,0-15.97,1.64-3.27,14.04-3.13,15.97,0-2.75-5.24-2.71-10.72,0-15.97-5.25,2.72-10.73,2.77-15.97,0-2.75-5.24-2.71-10.72,0-15.97-5.25,2.71-10.73,2.76-15.97,0-2.77-5.24-2.73-10.72,0-15.97l-1.14,2c-3.29.57-13.41.9-14.83-2-2.77-5.24-2.73-10.72,0-15.97-2.49-5.38-2.46-10.58,0-15.97-5.3,1.95-10.67,1.97-15.97,0-2.77-5.24-2.73-10.72,0-15.97-2.49-5.38-2.46-10.58,0-15.97-5.25,2.71-10.73,2.75-15.97,0-1.94-5.3-1.94-10.67,0-15.97-2.75-5.24-2.71-10.72,0-15.97-5.25,2.71-10.73,2.75-15.97,0-2.75-5.24-2.71-10.72,0-15.97h15.97c.02,5.31-.05,10.66,0,15.97,5.31.04,10.66-.03,15.97,0,.03,10.63-.06,21.31,0,31.94,5.31.04,10.66-.03,15.97,0,.03,10.63-.06,21.31,0,31.94,5.31.01,10.66,0,15.97,0,.01,10.63-.04,21.31,0,31.94,5.31,0,10.66,0,15.97,0,.02,5.31-.05,10.66,0,15.97,5.31.04,10.66-.03,15.97,0,.02,5.31-.05,10.66,0,15.97,5.31.03,10.66,0,15.97,0,.04-5.31-.03-10.66,0-15.97,5.31-.02,10.66.05,15.97,0,.04-5.31-.03-10.66,0-15.97,5.31,0,10.66,0,15.97,0,.04-5.31-.03-10.66,0-15.97h15.97v-47.91c5.31-.03,10.66.04,15.97,0,1.96,5.3,1.96,10.67,0,15.97,1.64-3.27,14.04-3.13,15.97,0-2.72-5.25-2.77-10.73,0-15.97,5.24-2.77,10.72-2.72,15.97,0-3.27-1.64-3.13-14.04,0-15.97-5.3,1.96-10.67,1.96-15.97,0,2.73,5.25,2.77,10.73,0,15.97-5.23,2.76-10.72,2.71-15.97,0v-15.97s15.97,0,15.97,0Z"/>
  <path class="cls-4" d="M191.63.02c3.27,1.64,3.13,14.04,0,15.97-5.3,1.96-10.67,1.96-15.97,0-5.3,1.96-10.67,1.96-15.97,0-5.3,1.97-10.67,1.96-15.97,0-15.82,2.9-32.08,2.83-47.91,0,2.71,5.25,2.75,10.73,0,15.97-10.65,2.39-21.28,2.39-31.94,0,2.26,3.22,3.12,15.13,1.14,17.11s-13.89,1.12-17.11-1.14c2.39,10.65,2.39,21.28,0,31.94-5.24,2.75-10.72,2.71-15.97,0,2.82,15.82,2.79,32.08,0,47.91-1.64,3.27-14.04,3.13-15.97,0,2.8,47.86,2.85,95.86,0,143.72,1.96,5.3,1.96,10.67,0,15.97,1.96,5.3,1.95,10.67,0,15.97,1.64-3.27,14.04-3.13,15.97,0,1.95,5.3,1.96,10.67,0,15.97,1.96,5.3,1.95,10.67,0,15.97,2.48,5.38,2.46,10.58,0,15.97,5.25-2.71,10.73-2.75,15.97,0,2.48,5.38,2.46,10.58,0,15.97,2.75,5.24,2.71,10.72,0,15.97,5.25-2.71,10.73-2.75,15.97,0,2.75,5.24,2.71,10.72,0,15.97-5.31-.04-10.66.03-15.97,0-.02-5.31.05-10.66,0-15.97-5.31-.04-10.66.03-15.97,0-.03-10.63.06-21.31,0-31.94-5.31-.04-10.66.03-15.97,0-.02-15.95.04-31.96,0-47.91H0V127.77h15.97c.04-15.95-.02-31.96,0-47.91,5.31-.02,10.66.05,15.97,0,.05-10.63-.03-21.31,0-31.94,5.31-.06,10.67.09,15.97,0,.04-5.31-.03-10.66,0-15.97,5.31-.02,10.66.05,15.97,0,.09-5.31-.06-10.66,0-15.97,10.63-.03,21.31.06,31.94,0,.04-5.31-.03-10.66,0-15.97,31.92.07,63.9-.07,95.82,0Z"/>
  <path class="cls-2" d="M191.63.02c15.95.04,31.96-.02,47.91,0,.02,5.31-.05,10.66,0,15.97,10.63.06,21.31-.04,31.94,0v15.97h15.97c.03,5.31-.04,10.66,0,15.97s-.03,10.66,0,15.97c5.31.03,10.66-.04,15.97,0,.04,5.31-.03,10.66,0,15.97l-1.14,2c-3.29.57-13.41.9-14.83-2-2.48-5.38-2.46-10.58,0-15.97-5.38,2.46-10.59,2.48-15.97,0-2.46-4.62-2.61-9.91-1.13-14.84-4.93,1.48-10.22,1.33-14.84-1.13-2.46-4.62-2.61-9.91-1.13-14.84-4.93,1.48-10.22,1.33-14.84-1.13-2.75-5.24-2.71-10.72,0-15.97-5.38,2.46-10.59,2.48-15.97,0-5.3,1.95-10.67,1.96-15.97,0-5.3,1.96-10.67,1.96-15.97,0V.02Z"/>
  <path class="cls-2" d="M79.84,399.24c2.75,5.24,2.71,10.72,0,15.97,5.25-2.71,10.73-2.75,15.97,0,2.75,5.24,2.71,10.72,0,15.97,5.25-2.71,10.73-2.75,15.97,0,5.38-2.46,10.59-2.48,15.97,0,2.48,5.38,2.46,10.58,0,15.97-10.63-.06-21.31.04-31.94,0-.02-5.31.05-10.66,0-15.97-5.31-.04-10.66.03-15.97,0-.02-5.31.05-10.66,0-15.97-5.31-.04-10.66.03-15.97,0-.02-5.31.05-10.66,0-15.97,5.25-2.71,10.73-2.75,15.97,0Z"/>
  <path class="cls-2" d="M207.59,463.12c3.27,1.64,3.13,14.04,0,15.97-5.31,0-10.66,0-15.97,0v-15.97c5.3-1.96,10.67-1.96,15.97,0Z"/>
  <path class="cls-7" d="M223.56,15.99c3.27,1.64,3.13,14.04,0,15.97-5.38,2.46-10.59,2.48-15.97,0-3.27-1.64-3.13-14.04,0-15.97,5.31,0,10.66-.01,15.97,0Z"/>
  <path class="cls-7" d="M255.5,463.12c3.27,1.64,3.13,14.04,0,15.97-5.31,0-10.66,0-15.97,0-3.27-1.64-3.13-14.04,0-15.97,5.3-1.96,10.67-1.96,15.97,0Z"/>
  <path class="cls-7" d="M95.81,31.96c3.6-2.04,15.01-3.24,17.11-1.14s.9,13.51-1.14,17.11c-5.24,2.75-10.72,2.71-15.97,0-2.48-5.38-2.5-10.59,0-15.97Z"/>
  <path class="cls-7" d="M143.72,31.96c3.27,1.64,3.13,14.04,0,15.97-5.3,1.96-10.67,1.95-15.97,0-2.04-3.6-3.24-15.01-1.14-17.11s13.51-.9,17.11,1.14Z"/>
  <path class="cls-7" d="M287.44,463.12c3.27,1.64,3.13,14.04,0,15.97-5.31,0-10.66,0-15.97,0-3.27-1.64-3.13-14.04,0-15.97,5.3-1.96,10.67-1.96,15.97,0Z"/>
  <path class="cls-7" d="M175.66,31.96l2,1.14c.57,3.29.9,13.41-2,14.83-5.3,1.96-10.67,1.96-15.97,0-3.27-1.64-3.13-14.04,0-15.97,5.38-2.5,10.58-2.48,15.97,0Z"/>
  <path class="cls-7" d="M335.35,447.15c3.27,1.64,3.13,14.04,0,15.97-5.3,1.96-10.67,1.96-15.97,0-1.96-5.3-1.96-10.67,0-15.97,5.38-2.48,10.58-2.46,15.97,0Z"/>
  <path class="cls-7" d="M207.59,31.96l2,1.14c.57,3.29.9,13.41-2,14.83-5.3,1.96-10.67,1.96-15.97,0-3.27-1.64-3.13-14.04,0-15.97,5.3-1.96,10.67-1.97,15.97,0Z"/>
  <path class="cls-7" d="M303.41,447.15l2,1.14c.57,3.29.9,13.41-2,14.83-5.3,1.96-10.67,1.96-15.97,0-3.27-1.64-3.13-14.04,0-15.97,5.3-1.96,10.67-1.96,15.97,0Z"/>
  <path class="cls-7" d="M239.53,31.96c2.5,5.38,2.49,10.59,0,15.97-5.38,2.46-10.59,2.48-15.97,0-1.96-5.3-1.96-10.67,0-15.97,5.25-2.72,10.73-2.77,15.97,0Z"/>
  <path class="cls-7" d="M271.47,447.15l2,1.14c.57,3.29.9,13.41-2,14.83-5.3,1.96-10.67,1.96-15.97,0-1.96-5.3-1.96-10.67,0-15.97,5.3-1.96,10.67-1.96,15.97,0Z"/>
  <path class="cls-7" d="M95.81,47.93c1.95,5.3,1.96,10.67,0,15.97-5.24,2.75-10.72,2.71-15.97,0-2.04-3.6-3.24-15.01-1.14-17.11s13.51-.9,17.11,1.14Z"/>
  <path class="cls-7" d="M239.53,447.15l2,1.14c.57,3.29.9,13.41-2,14.83-5.3,1.96-10.67,1.96-15.97,0-3.27-1.64-3.13-14.04,0-15.97,5.3-1.96,10.67-1.96,15.97,0Z"/>
  <path class="cls-7" d="M127.75,47.93c2.71,5.25,2.75,10.73,0,15.97-5.3,1.96-10.67,1.95-15.97,0-2.75-5.24-2.71-10.72,0-15.97,5.38-2.5,10.58-2.48,15.97,0Z"/>
  <path class="cls-7" d="M207.59,447.15l2,1.14c.57,3.29.9,13.41-2,14.83,5.3-1.97,10.67-1.96,15.97,0,3.27,1.64,3.13,14.04,0,15.97-5.31,0-10.66,0-15.97,0v-15.97c-5.31,0-10.66,0-15.97,0-3.27-1.64-3.13-14.04,0-15.97,5.3-1.96,10.67-1.96,15.97,0Z"/>
  <path class="cls-7" d="M159.69,47.93l2,1.14c.57,3.29.9,13.41-2,14.83-5.3,1.97-10.67,1.96-15.97,0-3.27-1.64-3.13-14.04,0-15.97,5.3-1.97,10.67-1.96,15.97,0Z"/>
  <path class="cls-7" d="M223.56,431.18c3.27,1.64,3.13,14.04,0,15.97-5.3,1.96-10.67,1.96-15.97,0-3.27-1.64-3.13-14.04,0-15.97,5.3-1.96,10.67-1.96,15.97,0Z"/>
  <path class="cls-7" d="M191.63,47.93c3.27,1.64,3.13,14.04,0,15.97-5.3,1.96-10.67,1.96-15.97,0-3.27-1.64-3.13-14.04,0-15.97,5.3-1.96,10.67-1.97,15.97,0Z"/>
  <path class="cls-7" d="M191.63,431.18c3.27,1.64,3.13,14.04,0,15.97-5.3,1.96-10.67,1.96-15.97,0-3.27-1.64-3.13-14.04,0-15.97,5.3-1.96,10.67-1.96,15.97,0Z"/>
  <path class="cls-7" d="M223.56,47.93c2.47,5.38,2.45,10.58,0,15.97,5.3-1.96,10.67-1.96,15.97,0l2,1.14c.57,3.29.9,13.41-2,14.83-3.6,2.04-15.01,3.24-17.11,1.14s-.9-13.51,1.14-17.11c-5.3,1.96-10.67,1.96-15.97,0-3.27-1.64-3.13-14.04,0-15.97,5.3-1.96,10.67-1.97,15.97,0Z"/>
  <path class="cls-7" d="M159.69,431.18l2,1.14c.57,3.29.9,13.41-2,14.83-5.3,1.96-10.67,1.97-15.97,0-3.27-1.64-3.13-14.04,0-15.97,5.3-1.96,10.67-1.96,15.97,0Z"/>
  <path class="cls-7" d="M255.5,47.93c2.77,5.24,2.72,10.72,0,15.97-5.3,1.96-10.67,1.96-15.97,0-1.96-5.3-1.96-10.67,0-15.97,5.25-2.72,10.73-2.77,15.97,0Z"/>
  <path class="cls-7" d="M79.84,63.9c2.71,5.25,2.75,10.73,0,15.97-5.3,1.96-10.67,1.95-15.97,0-2.04-3.6-3.24-15.01-1.14-17.11s13.51-.9,17.11,1.14Z"/>
  <path class="cls-7" d="M207.59,415.21l2,1.14c.57,3.29.9,13.41-2,14.83-5.3,1.96-10.67,1.96-15.97,0-3.27-1.64-3.13-14.04,0-15.97,5.3-1.96,10.67-1.95,15.97,0Z"/>
  <path class="cls-7" d="M111.78,63.9c2.5,5.38,2.48,10.58,0,15.97-5.38,2.46-10.59,2.48-15.97,0-1.96-5.3-1.97-10.67,0-15.97,5.38-2.5,10.58-2.48,15.97,0Z"/>
  <path class="cls-7" d="M175.66,415.21c1.96,5.3,1.96,10.67,0,15.97-5.3,1.96-10.67,1.96-15.97,0-3.27-1.64-3.13-14.04,0-15.97,5.3-1.96,10.67-1.96,15.97,0Z"/>
  <path class="cls-7" d="M143.72,415.21c3.27,1.64,3.13,14.04,0,15.97-5.3,1.96-10.67,1.97-15.97,0-1.97-5.3-1.96-10.67,0-15.97,5.3-1.96,10.67-1.96,15.97,0Z"/>
  <path class="cls-7" d="M271.47,63.9c2.77,5.24,2.72,10.72,0,15.97-5.38,2.49-10.59,2.5-15.97,0-2.48-5.38-2.46-10.58,0-15.97,5.3-1.96,10.67-1.97,15.97,0Z"/>
  <path class="cls-7" d="M63.88,79.87c2.71,5.25,2.75,10.73,0,15.97-3.6,2.04-15.01,3.24-17.11,1.14s-.9-13.51,1.14-17.11c5.38-2.5,10.58-2.48,15.97,0Z"/>
  <path class="cls-7" d="M223.56,399.24c3.27,1.64,3.13,14.04,0,15.97-5.38,2.5-10.58,2.48-15.97,0-3.27-1.64-3.13-14.04,0-15.97,1.64-3.27,14.04-3.13,15.97,0Z"/>
  <path class="cls-7" d="M95.81,79.87c1.96,5.3,1.96,10.67,0,15.97-5.38,2.49-10.59,2.5-15.97,0-2.48-5.38-2.5-10.59,0-15.97,5.3-1.96,10.67-1.97,15.97,0Z"/>
  <path class="cls-7" d="M191.63,399.24c3.27,1.64,3.13,14.04,0,15.97-5.3,1.97-10.67,1.96-15.97,0-1.96-5.3-1.97-10.67,0-15.97,1.64-3.27,14.04-3.13,15.97,0Z"/>
  <path class="cls-7" d="M127.75,79.87c1.95,5.3,1.96,10.67,0,15.97-5.24,2.77-10.72,2.72-15.97,0-1.96-5.3-1.95-10.67,0-15.97,5.25-2.72,10.73-2.77,15.97,0Z"/>
  <path class="cls-7" d="M159.69,399.24l2,1.14c.57,3.29.9,13.41-2,14.83-5.3,1.96-10.67,1.97-15.97,0-3.27-1.64-3.13-14.04,0-15.97,1.64-3.27,14.04-3.13,15.97,0Z"/>
  <path class="cls-7" d="M287.44,79.87c1.97,5.3,1.97,10.67,0,15.97-5.38,2.47-10.59,2.46-15.97,0-2.48-5.38-2.46-10.58,0-15.97,5.3-1.96,10.67-1.96,15.97,0Z"/>
  <path class="cls-7" d="M127.75,399.24c1.97,5.3,1.96,10.67,0,15.97-5.3,1.96-10.67,1.97-15.97,0-3.27-1.64-3.13-14.04,0-15.97,5.3-1.96,10.67-1.96,15.97,0Z"/>
  <path class="cls-7" d="M79.84,95.84c1.95,5.3,1.96,10.67,0,15.97-5.24,2.75-10.72,2.71-15.97,0-2.48-5.38-2.5-10.59,0-15.97,5.25-2.71,10.73-2.75,15.97,0Z"/>
  <path class="cls-7" d="M191.63,15.99c3.27,1.64,3.13,14.04,0,15.97-5.3,1.96-10.67,1.95-15.97,0-3.27-1.64-3.13-14.04,0-15.97,5.31,0,10.66,0,15.97,0Z"/>
  <path class="cls-7" d="M111.78,95.84c1.96,5.3,1.96,10.67,0,15.97-5.3,1.96-10.67,1.95-15.97,0-3.27-1.64-3.13-14.04,0-15.97,5.38-2.47,10.59-2.46,15.97,0Z"/>
  <path class="cls-7" d="M207.59,383.27l2,1.14c.57,3.29.9,13.41-2,14.83-1.64,3.27-14.04,3.13-15.97,0-3.27-1.64-3.13-14.04,0-15.97,5.3-1.97,10.67-1.96,15.97,0Z"/>
  <path class="cls-7" d="M271.47,95.84c1.97,5.3,1.96,10.67,0,15.97,5.38-2.46,10.59-2.47,15.97,0,2.72,5.25,2.77,10.73,0,15.97-5.3,1.97-10.67,1.96-15.97,0-1.95-5.3-1.95-10.67,0-15.97-5.25,2.72-10.73,2.77-15.97,0-1.96-5.3-1.96-10.67,0-15.97,5.24-2.77,10.72-2.72,15.97,0Z"/>
  <path class="cls-7" d="M111.78,383.27c3.27,1.64,3.13,14.04,0,15.97-5.3,1.96-10.67,1.97-15.97,0-1.97-5.3-1.96-10.67,0-15.97,5.3-1.96,10.67-1.96,15.97,0Z"/>
  <path class="cls-7" d="M303.41,95.84c2.72,5.25,2.77,10.73,0,15.97,1.64-3.27,14.04-3.13,15.97,0,.03,5.31-.04,10.66,0,15.97,2.32,4.32,2.42,9.22,1.72,13.98h12.83s1.42,1.99,1.42,1.99c.03,5.31-.04,10.66,0,15.97,2.46,4.62,2.61,9.91,1.13,14.84,4.93-1.48,10.22-1.33,14.84,1.13,2.46,4.62,2.61,9.91,1.13,14.84,4.93-1.48,10.22-1.33,14.84,1.13,2.5,5.38,2.48,10.58,0,15.97.01,5.31.01,10.66,0,15.97-21.28.03-42.6-.02-63.88,0-.02,5.31.05,10.66,0,15.97-5.31.04-10.66-.03-15.97,0-.02,15.95.04,31.96,0,47.91,5.31.04,10.66-.03,15.97,0,.02,5.31-.05,10.66,0,15.97,5.31.04,10.66-.03,15.97,0,.02,5.31-.05,10.66,0,15.97,21.28-.03,42.6.02,63.88,0,.02-5.31-.05-10.66,0-15.97,5.31-.04,10.66.03,15.97,0v-47.91c-5.31-.03-10.66.04-15.97,0,0-5.31,0-10.66,0-15.97,5.31-.04,10.66.03,15.97,0,.02-5.31-.05-10.66,0-15.97,5.31.01,10.66-.03,15.97,0l2,1.14v12.78c4.91-.55,9.57.13,13.97,2.05,2.46,4.62,2.61,9.91,1.13,14.84,4.93-1.48,10.22-1.33,14.84,1.13,2.32,4.32,2.42,9.22,1.72,13.98h12.83s1.42,1.99,1.42,1.99c.02,5.31-.04,10.66,0,15.97,2.32,4.32,2.42,9.22,1.72,13.98h12.83s1.42,1.99,1.42,1.99c.06,26.6.06,53.25,0,79.84l-1.14,2h-12.78c.55,4.91-.13,9.57-2.05,13.97-.04,5.31.02,10.66,0,15.97l-1.14,2h-12.78c.55,4.91-.13,9.57-2.05,13.97-4.32,2.32-9.22,2.42-13.98,1.72v12.83s-1.99,1.42-1.99,1.42c-5.31.02-10.66-.04-15.97,0-4.32,2.32-9.22,2.42-13.98,1.72v12.83s-1.99,1.42-1.99,1.42c-10.63.03-21.31,0-31.94,0-5.3,1.96-10.67,1.96-15.97,0,3.27,1.64,3.13,14.04,0,15.97-5.31,0-10.66,0-15.97,0-3.27-1.64-3.13-14.04,0-15.97,5.3-1.96,10.67-1.96,15.97,0-3.27-1.64-3.13-14.04,0-15.97,5.24-2.77,10.72-2.72,15.97,0-3.27-1.64-3.13-14.04,0-15.97-5.25,2.72-10.73,2.77-15.97,0,3.27,1.64,3.13,14.04,0,15.97-5.24,2.77-10.72,2.72-15.97,0-3.27-1.64-3.13-14.04,0-15.97,5.25-2.73,10.73-2.77,15.97,0-1.96-5.3-1.96-10.67,0-15.97,4.7-2.5,9.73-2.58,14.74-1-1.29-10.26-1.53-20.88,1.23-30.94-2.46-4.62-2.61-9.91-1.13-14.84-4.93,1.48-10.22,1.33-14.84-1.13-2.46-4.62-2.61-9.91-1.13-14.84-4.93,1.48-10.22,1.33-14.84-1.13-2.46-4.62-2.61-9.91-1.13-14.84-4.93,1.48-10.22,1.33-14.84-1.13-2.75-5.24-2.71-10.72,0-15.97-5.3,1.97-10.67,1.96-15.97,0-2.47-5.38-2.45-10.58,0-15.97-5.25,2.71-10.73,2.75-15.97,0-1.96-5.3-1.97-10.67,0-15.97-5.25,2.71-10.73,2.75-15.97,0-2.46-4.62-2.61-9.91-1.13-14.84-4.93,1.48-10.22,1.33-14.84-1.13-3.27-1.64-3.13-14.04,0-15.97,5.24-2.77,10.72-2.72,15.97,0-3.27-1.64-3.13-14.04,0-15.97-5.25,2.72-10.73,2.77-15.97,0-3.27-1.64-3.13-14.04,0-15.97,5.24-2.77,10.72-2.72,15.97,0-3.27-1.64-3.13-14.04,0-15.97-5.25,2.72-10.73,2.77-15.97,0-1.96-5.3-1.96-10.67,0-15.97,4.62-2.46,9.91-2.61,14.84-1.13-1.48-4.93-1.33-10.22,1.13-14.84,5.24-2.77,10.72-2.72,15.97,0-3.27-1.64-3.13-14.04,0-15.97-5.25,2.72-10.73,2.77-15.97,0-2.46-5.38-2.48-10.59,0-15.97,4.62-2.46,9.91-2.61,14.84-1.13-1.48-4.93-1.33-10.22,1.13-14.84,4.92-1.55,9.92-2.53,14.97-1.23-1.58-5.01-1.5-10.05,1-14.74-1.64,3.27-14.04,3.13-15.97,0-2.46-5.38-2.48-10.59,0-15.97,5.38-2.49,10.59-2.5,15.97,0Z"/>
  <path class="cls-7" d="M223.56,367.31c3.27,1.64,3.13,14.04,0,15.97-5.3,1.97-10.67,1.96-15.97,0-3.27-1.64-3.13-14.04,0-15.97,5.3-1.96,10.67-1.97,15.97,0Z"/>
  <path class="cls-7" d="M63.88,111.81c1.95,5.3,1.96,10.67,0,15.97-1.64,3.27-14.04,3.13-15.97,0-2.04-3.6-3.24-15.01-1.14-17.11s13.51-.9,17.11,1.14Z"/>
  <path class="cls-7" d="M191.63,367.31c3.27,1.64,3.13,14.04,0,15.97-5.3,1.97-10.67,1.96-15.97,0,2.46,5.38,2.48,10.59,0,15.97-1.64,3.27-14.04,3.13-15.97,0-3.27-1.64-3.13-14.04,0-15.97,5.3-1.96,10.67-1.96,15.97,0-2.72-5.25-2.77-10.73,0-15.97,5.3-1.96,10.67-1.97,15.97,0Z"/>
  <path class="cls-7" d="M95.81,111.81c3.27,1.64,3.13,14.04,0,15.97-5.3,1.96-10.67,1.96-15.97,0-1.96-5.3-1.97-10.67,0-15.97,5.38-2.5,10.58-2.48,15.97,0Z"/>
  <path class="cls-7" d="M95.81,367.31c1.96,5.3,1.96,10.67,0,15.97-5.3,1.96-10.67,1.97-15.97,0-1.97-5.3-1.96-10.67,0-15.97,1.64-3.27,14.04-3.13,15.97,0Z"/>
  <path class="cls-7" d="M127.75,111.81c1.96,5.3,1.95,10.67,0,15.97-5.3,1.96-10.67,1.96-15.97,0-3.27-1.64-3.13-14.04,0-15.97,5.3-1.97,10.67-1.96,15.97,0Z"/>
  <path class="cls-7" d="M63.88,367.31c2.48,5.38,2.46,10.58,0,15.97,5.38-2.46,10.59-2.48,15.97,0,2.48,5.38,2.46,10.58,0,15.97,5.38-2.46,10.59-2.48,15.97,0,2.48,5.38,2.46,10.58,0,15.97,5.38-2.46,10.59-2.48,15.97,0,3.27,1.64,3.13,14.04,0,15.97-5.31-.03-10.66.04-15.97,0-.04-5.31.03-10.66,0-15.97-5.31-.03-10.66.04-15.97,0-.04-5.31.03-10.66,0-15.97-5.31-.03-10.66.04-15.97,0-.04-5.31.03-10.66,0-15.97-5.31-.03-10.66.04-15.97,0-.04-5.31.03-10.66,0-15.97,1.69-3.28,14.06-3.12,15.97,0Z"/>
  <path class="cls-7" d="M47.91,127.77c2.71,5.25,2.75,10.73,0,15.97-3.6,2.04-15.01,3.24-17.11,1.14s-.9-13.51,1.14-17.11c1.64-3.27,14.04-3.13,15.97,0Z"/>
  <path class="cls-7" d="M239.53,351.34l2,1.14c.57,3.29.9,13.41-2,14.83-5.3,1.95-10.67,1.96-15.97,0-3.27-1.64-3.13-14.04,0-15.97,5.3-1.97,10.67-1.96,15.97,0Z"/>
  <path class="cls-7" d="M79.84,127.77c1.96,5.3,1.97,10.67,0,15.97-5.38,2.48-10.59,2.5-15.97,0-1.96-5.3-1.96-10.67,0-15.97,1.64-3.27,14.04-3.13,15.97,0Z"/>
  <path class="cls-7" d="M79.84,351.34c1.96,5.3,1.96,10.67,0,15.97-1.64,3.27-14.04,3.13-15.97,0-1.97-5.3-1.96-10.67,0-15.97,5.3-1.96,10.67-1.97,15.97,0Z"/>
  <path class="cls-7" d="M111.78,127.77c3.27,1.64,3.13,14.04,0,15.97-5.3,1.96-10.67,1.97-15.97,0-3.27-1.64-3.13-14.04,0-15.97,5.3-1.96,10.67-1.97,15.97,0Z"/>
  <path class="cls-7" d="M319.38,335.37c2.75,5.24,2.71,10.72,0,15.97,5.25-2.72,10.73-2.77,15.97,0,2.76,5.23,2.71,10.72,0,15.97-3.6,2.04-15.01,3.24-17.11,1.14-2.1-2.1-.9-13.51,1.14-17.11-5.38,2.46-10.59,2.48-15.97,0-3.27-1.64-3.13-14.04,0-15.97,5.25-2.72,10.73-2.77,15.97,0Z"/>
  <path class="cls-7" d="M143.72,127.77c3.27,1.64,3.13,14.04,0,15.97-5.3,1.96-10.67,1.97-15.97,0-2.5-5.38-2.48-10.58,0-15.97,5.3-1.96,10.67-1.97,15.97,0Z"/>
  <path class="cls-7" d="M287.44,335.37c3.27,1.64,3.13,14.04,0,15.97-5.3,1.96-10.67,1.96-15.97,0,2.48,5.38,2.5,10.59,0,15.97-5.25,2.71-10.73,2.75-15.97,0-3.27-1.64-3.13-14.04,0-15.97,5.3-1.97,10.67-1.97,15.97,0-1.95-5.3-1.96-10.67,0-15.97,5.3-1.96,10.67-1.97,15.97,0Z"/>
  <path class="cls-7" d="M255.5,335.37l2,1.14c.57,3.29.9,13.41-2,14.83-5.3,1.96-10.67,1.96-15.97,0-3.27-1.64-3.13-14.04,0-15.97,5.3-1.95,10.67-1.96,15.97,0Z"/>
  <path class="cls-7" d="M63.88,143.74l2,1.14c.57,3.29.9,13.41-2,14.83-5.24,2.75-10.72,2.71-15.97,0-2.48-5.38-2.5-10.59,0-15.97,5.25-2.71,10.73-2.75,15.97,0Z"/>
  <path class="cls-7" d="M95.81,335.37c1.96,5.3,1.96,10.67,0,15.97,5.25-2.72,10.73-2.77,15.97,0,3.27,1.64,3.13,14.04,0,15.97,1.64-3.27,14.04-3.13,15.97,0,2.77,5.24,2.72,10.72,0,15.97,5.3-1.96,10.67-1.96,15.97,0,3.27,1.64,3.13,14.04,0,15.97-5.3,1.96-10.67,1.97-15.97,0-2.48-5.38-2.46-10.58,0-15.97-5.3,1.96-10.67,1.96-15.97,0-3.27-1.64-3.13-14.04,0-15.97-1.64,3.27-14.04,3.13-15.97,0-1.97-5.3-1.96-10.67,0-15.97-5.38,2.46-10.59,2.48-15.97,0-1.97-5.3-1.96-10.67,0-15.97,5.38-2.47,10.59-2.46,15.97,0Z"/>
  <path class="cls-7" d="M95.81,143.74c3.27,1.64,3.13,14.04,0,15.97-5.3,1.96-10.67,1.95-15.97,0,2.72,5.25,2.77,10.73,0,15.97-5.39,2.46-10.59,2.5-15.97,0,3.27,1.64,3.13,14.04,0,15.97-5.23,2.76-10.72,2.71-15.97,0-1.96-5.3-1.97-10.67,0-15.97,5.25-2.71,10.73-2.75,15.97,0-3.27-1.64-3.13-14.04,0-15.97,5.38-2.5,10.58-2.48,15.97,0-2.46-5.38-2.48-10.59,0-15.97,5.3-1.95,10.67-1.96,15.97,0Z"/>
  <path class="cls-7" d="M63.88,335.37c1.96,5.3,1.96,10.67,0,15.97-5.38,2.48-10.59,2.5-15.97,0-1.97-5.3-1.96-10.67,0-15.97,1.64-3.27,14.04-3.13,15.97,0Z"/>
  <path class="cls-7" d="M127.75,143.74c2.75,5.24,2.71,10.72,0,15.97,5.3-1.97,10.67-1.96,15.97,0,3.27,1.64,3.13,14.04,0,15.97-3.6,2.04-15.01,3.24-17.11,1.14s-.9-13.51,1.14-17.11c-5.3,1.97-10.67,1.96-15.97,0-3.27-1.64-3.13-14.04,0-15.97,5.3-1.96,10.67-1.96,15.97,0Z"/>
  <path class="cls-7" d="M303.41,319.4c1.96,5.3,1.96,10.67,0,15.97-5.38,2.46-10.59,2.48-15.97,0-3.27-1.64-3.13-14.04,0-15.97,5.3-1.97,10.67-1.96,15.97,0Z"/>
  <path class="cls-7" d="M159.69,143.74c2.47,5.38,2.46,10.59,0,15.97-5.3,1.96-10.67,1.96-15.97,0-3.27-1.64-3.13-14.04,0-15.97,5.3-1.96,10.67-1.96,15.97,0Z"/>
  <path class="cls-7" d="M191.63,143.74c2.77,5.24,2.72,10.72,0,15.97,5.3-1.96,10.67-1.96,15.97,0l2,1.14c.57,3.29.9,13.41-2,14.83-5.3,1.96-10.67,1.97-15.97,0-2.48-5.38-2.46-10.58,0-15.97-5.3,1.96-10.67,1.96-15.97,0-3.27-1.64-3.13-14.04,0-15.97,5.3-1.96,10.67-1.96,15.97,0Z"/>
  <path class="cls-7" d="M47.91,159.71c1.95,5.3,1.96,10.67,0,15.97-5.25,2.71-10.73,2.75-15.97,0-3.27-1.64-3.13-14.04,0-15.97,5.24-2.75,10.72-2.71,15.97,0Z"/>
  <path class="cls-7" d="M271.47,319.4c1.97,5.3,1.96,10.67,0,15.97-5.3,1.96-10.67,1.97-15.97,0-3.27-1.64-3.13-14.04,0-15.97,5.3-1.96,10.67-1.96,15.97,0Z"/>
  <path class="cls-7" d="M239.53,319.4c3.27,1.64,3.13,14.04,0,15.97-5.38,2.48-10.59,2.5-15.97,0-3.27-1.64-3.13-14.04,0-15.97,5.3-1.95,10.67-1.96,15.97,0Z"/>
  <path class="cls-7" d="M79.84,319.4l2,1.14c.57,3.29.9,13.41-2,14.83-1.64,3.27-14.04,3.13-15.97,0-1.97-5.3-1.96-10.67,0-15.97,1.64-3.27,14.04-3.13,15.97,0Z"/>
  <path class="cls-7" d="M175.66,159.71l2,1.14c.57,3.29.9,13.41-2,14.83-5.38,2.48-10.59,2.5-15.97,0-2.77-5.24-2.72-10.72,0-15.97,5.3-1.96,10.67-1.97,15.97,0Z"/>
  <path class="cls-7" d="M47.91,319.4c1.96,5.3,1.96,10.67,0,15.97-1.64,3.27-14.04,3.13-15.97,0-.01-5.31,0-10.66,0-15.97,1.64-3.27,14.04-3.13,15.97,0Z"/>
  <path class="cls-7" d="M287.44,303.43c1.96,5.3,1.96,10.67,0,15.97-5.3,1.97-10.67,1.97-15.97,0-2.48-5.38-2.46-10.58,0-15.97,5.38-2.48,10.59-2.5,15.97,0Z"/>
  <path class="cls-7" d="M239.53,159.71l2,1.14c.57,3.29.9,13.41-2,14.83-5.3,1.97-10.67,1.96-15.97,0-3.27-1.64-3.13-14.04,0-15.97,5.3-1.96,10.67-1.97,15.97,0Z"/>
  <path class="cls-7" d="M271.47,159.71c2.72,5.25,2.77,10.73,0,15.97-5.24,2.77-10.72,2.72-15.97,0-1.96-5.3-1.96-10.67,0-15.97,5.25-2.72,10.73-2.77,15.97,0Z"/>
  <path class="cls-7" d="M255.5,303.43l2,1.14c.57,3.29.9,13.41-2,14.83-5.3,1.96-10.67,1.97-15.97,0-3.27-1.64-3.13-14.04,0-15.97,5.3-1.96,10.67-1.96,15.97,0Z"/>
  <path class="cls-7" d="M223.56,303.43c3.27,1.64,3.13,14.04,0,15.97-5.38,2.48-10.59,2.5-15.97,0-3.27-1.64-3.13-14.04,0-15.97,1.64-3.27,14.04-3.13,15.97,0Z"/>
  <path class="cls-7" d="M111.78,303.43c10.58-2.7,21.37-2.77,31.94,0,3.27,1.64,3.13,14.04,0,15.97l-1.14,2c-3.16.59-13.5.88-14.83-2l2,1.14c.57,3.29.9,13.41-2,14.83-5.24,2.75-10.72,2.71-15.97,0-.78-.09-1.95-.34-2-.89-.33-4.15-.77-26.92,0-29.6l2-1.45Z"/>
  <path class="cls-7" d="M191.63,175.68c1.97,5.3,1.96,10.67,0,15.97-5.25,2.72-10.73,2.77-15.97,0-3.27-1.64-3.13-14.04,0-15.97,5.3-1.95,10.67-1.96,15.97,0Z"/>
  <path class="cls-7" d="M63.88,303.43l2,1.14c.57,3.29.9,13.41-2,14.83-1.64,3.27-14.04,3.13-15.97,0-1.96-5.3-1.96-10.67,0-15.97,1.64-3.27,14.04-3.13,15.97,0Z"/>
  <path class="cls-7" d="M223.56,175.68c3.27,1.64,3.13,14.04,0,15.97-5.3,1.97-10.67,1.97-15.97,0-3.27-1.64-3.13-14.04,0-15.97,5.3-1.96,10.67-1.96,15.97,0Z"/>
  <path class="cls-7" d="M319.38,463.12c3.27,1.64,3.13,14.04,0,15.97-5.31,0-10.66,0-15.97,0-3.27-1.64-3.13-14.04,0-15.97,5.3-1.96,10.67-1.96,15.97,0Z"/>
  <path class="cls-7" d="M255.5,175.68c1.96,5.3,1.96,10.67,0,15.97-5.24,2.77-10.72,2.72-15.97,0-3.27-1.64-3.13-14.04,0-15.97,5.38-2.48,10.58-2.46,15.97,0Z"/>
  <path class="cls-7" d="M271.47,287.46c2.77,5.24,2.72,10.72,0,15.97-5.3,1.95-10.67,1.96-15.97,0-3.27-1.64-3.13-14.04,0-15.97,5.38-2.48,10.59-2.5,15.97,0Z"/>
  <path class="cls-7" d="M239.53,287.46l2,1.14c.57,3.29.9,13.41-2,14.83-1.64,3.27-14.04,3.13-15.97,0-3.27-1.64-3.13-14.04,0-15.97,5.3-1.96,10.67-1.96,15.97,0Z"/>
  <path class="cls-7" d="M47.91,191.65c1.96,5.3,1.97,10.67,0,15.97-4.79,2.9-11.26,2.99-15.97,0-3.27-1.64-3.13-14.04,0-15.97,5.24-2.75,10.72-2.71,15.97,0Z"/>
  <path class="cls-7" d="M207.59,191.65l2,1.14c.57,3.29.9,13.41-2,14.83-5.3,1.96-10.67,1.95-15.97,0-1.96-5.3-1.96-10.67,0-15.97,5.38-2.46,10.59-2.48,15.97,0Z"/>
  <path class="cls-7" d="M79.84,287.46c3.27,1.64,3.13,14.04,0,15.97-5.3,1.96-10.67,1.96-15.97,0-3.27-1.64-3.13-14.04,0-15.97,5.3-1.96,10.67-1.95,15.97,0Z"/>
  <path class="cls-7" d="M239.53,191.65l2,1.14c.57,3.29.9,13.41-2,14.83-5.38,2.46-10.59,2.48-15.97,0-3.27-1.64-3.13-14.04,0-15.97,5.38-2.48,10.58-2.46,15.97,0Z"/>
  <path class="cls-7" d="M47.91,287.46c1.96,5.3,1.96,10.67,0,15.97-1.64,3.27-14.04,3.13-15.97,0-2.48-5.38-2.5-10.59,0-15.97,1.64-3.27,14.04-3.13,15.97,0Z"/>
  <path class="cls-7" d="M255.5,271.49l2,1.14c.57,3.29.9,13.41-2,14.83-5.3,1.95-10.67,1.96-15.97,0-3.27-1.64-3.13-14.04,0-15.97,5.25-2.72,10.73-2.77,15.97,0Z"/>
  <path class="cls-7" d="M223.56,271.49c3.27,1.64,3.13,14.04,0,15.97-1.64,3.27-14.04,3.13-15.97,0-3.27-1.64-3.13-14.04,0-15.97,5.3-1.96,10.67-1.97,15.97,0Z"/>
  <path class="cls-7" d="M191.63,207.62c1.96,5.3,1.96,10.67,0,15.97-5.24,2.75-10.72,2.71-15.97,0,1.96,5.3,1.96,10.67,0,15.97-5.3,1.96-10.67,1.96-15.97,0,2.45,5.38,2.47,10.59,0,15.97-5.3,1.96-10.67,1.96-15.97,0,3.27,1.64,3.13,14.04,0,15.97-5.3,1.96-10.67,1.96-15.97,0,.53,1.76,1.02,3.52,1.33,5.32.63,3.63,1.49,9.33-.09,11.66-1.29,1.9-13.82,1.25-17.21-1.01,3.27,1.64,3.13,14.04,0,15.97-5.38,2.46-10.59,2.48-15.97,0,3.27,1.64,3.13,14.04,0,15.97l-1.14,2c-3.16.59-13.5.88-14.83-2-3.27-1.64-3.13-14.04,0-15.97,5.3-1.96,10.67-1.97,15.97,0-3.27-1.64-3.13-14.04,0-15.97,5.24-2.75,10.72-2.71,15.97,0-3.27-1.64-3.13-14.04,0-15.97,1.64-3.27,14.04-3.13,15.97,0-3.27-1.64-3.13-14.04,0-15.97,5.3-1.97,10.67-1.96,15.97,0-1.96-5.3-1.96-10.67,0-15.97,5.3-1.96,10.67-1.96,15.97,0-2.04-3.6-3.24-15.01-1.14-17.11s13.51-.9,17.11,1.14c-1.96-5.3-1.96-10.67,0-15.97,5.38-2.5,10.58-2.48,15.97,0Z"/>
  <path class="cls-7" d="M95.81,271.49c3.27,1.64,3.13,14.04,0,15.97-5.38,2.5-10.58,2.48-15.97,0-3.27-1.64-3.13-14.04,0-15.97,1.64-3.27,14.04-3.13,15.97,0Z"/>
  <path class="cls-7" d="M223.56,207.62c3.27,1.64,3.13,14.04,0,15.97-5.3,1.97-10.67,1.96-15.97,0-3.27-1.64-3.13-14.04,0-15.97,5.3-1.97,10.67-1.97,15.97,0Z"/>
  <path class="cls-7" d="M63.88,271.49l2,1.14c.57,3.29.9,13.41-2,14.83-5.3,1.96-10.67,1.96-15.97,0-1.96-5.3-1.96-10.67,0-15.97,1.64-3.27,14.04-3.13,15.97,0Z"/>
  <path class="cls-7" d="M255.5,207.62c1.96,5.3,1.96,10.67,0,15.97-5.24,2.77-10.72,2.72-15.97,0-3.27-1.64-3.13-14.04,0-15.97,5.25-2.72,10.73-2.77,15.97,0Z"/>
  <path class="cls-7" d="M31.94,271.49c2.71,5.25,2.75,10.73,0,15.97-1.64,3.27-14.04,3.13-15.97,0,0-5.31,0-10.66,0-15.97,1.64-3.27,14.04-3.13,15.97,0Z"/>
  <path class="cls-7" d="M239.53,255.52l2,1.14c.57,3.29.9,13.41-2,14.83-5.38,2.46-10.59,2.48-15.97,0-3.27-1.64-3.13-14.04,0-15.97,5.38-2.48,10.58-2.46,15.97,0Z"/>
  <path class="cls-7" d="M47.91,223.59c1.96,5.3,1.96,10.67,0,15.97,5.25-2.71,10.73-2.75,15.97,0l2,1.14c.57,3.29.9,13.41-2,14.83,5.38-2.5,10.58-2.48,15.97,0l2,1.14c.57,3.29.9,13.41-2,14.83l-1.14,2c-3.29.57-13.41.9-14.83-2-3.27-1.64-3.13-14.04,0-15.97-5.24,2.75-10.72,2.71-15.97,0-1.96-5.3-1.96-10.67,0-15.97-5.25,2.71-10.73,2.75-15.97,0-3.27-1.64-3.13-14.04,0-15.97,1.64-3.27,14.04-3.13,15.97,0Z"/>
  <path class="cls-7" d="M207.59,255.52l2,1.14c.57,3.29.9,13.41-2,14.83-5.3,1.96-10.67,1.96-15.97,0-1.97-5.3-1.96-10.67,0-15.97,5.3-1.96,10.67-1.96,15.97,0Z"/>
  <path class="cls-7" d="M207.59,223.59l2,1.14c.57,3.29.9,13.41-2,14.83-5.3,1.96-10.67,1.96-15.97,0-1.96-5.3-1.96-10.67,0-15.97,5.38-2.5,10.58-2.48,15.97,0Z"/>
  <path class="cls-7" d="M175.66,255.52c1.96,5.3,1.95,10.67,0,15.97,5.3-1.96,10.67-1.96,15.97,0,1.96,5.3,1.95,10.67,0,15.97,1.64-3.27,14.04-3.13,15.97,0l2,1.14c.57,3.29.9,13.41-2,14.83-1.64,3.27-14.04,3.13-15.97,0-2.5-5.38-2.48-10.58,0-15.97-1.64,3.27-14.04,3.13-15.97,0-2.5-5.38-2.48-10.58,0-15.97-5.3,1.96-10.67,1.96-15.97,0-3.27-1.64-3.13-14.04,0-15.97,5.3-1.96,10.67-1.96,15.97,0Z"/>
  <path class="cls-7" d="M239.53,223.59l2,1.14c.57,3.29.9,13.41-2,14.83-5.38,2.46-10.59,2.48-15.97,0-3.27-1.64-3.13-14.04,0-15.97,5.38-2.48,10.58-2.46,15.97,0Z"/>
  <path class="cls-7" d="M159.69,15.99l2,1.14c.57,3.29.9,13.41-2,14.83-5.24,2.75-10.72,2.71-15.97,0-3.27-1.64-3.13-14.04,0-15.97,5.31,0,10.66,0,15.97,0Z"/>
  <path class="cls-7" d="M111.78,255.52c3.27,1.64,3.13,14.04,0,15.97l-1.14,2c-3.29.57-13.41.9-14.83-2-3.27-1.64-3.13-14.04,0-15.97,5.3-1.97,10.67-1.96,15.97,0Z"/>
  <path class="cls-7" d="M47.91,255.52c1.96,5.3,1.96,10.67,0,15.97-1.64,3.27-14.04,3.13-15.97,0-2.04-3.6-3.24-15.01-1.14-17.11s13.51-.9,17.11,1.14Z"/>
  <path class="cls-7" d="M255.5,239.56c3.27,1.64,3.13,14.04,0,15.97-5.24,2.77-10.72,2.72-15.97,0-3.27-1.64-3.13-14.04,0-15.97,5.25-2.72,10.73-2.77,15.97,0Z"/>
  <path class="cls-7" d="M191.63,239.56c1.97,5.3,1.96,10.67,0,15.97-5.3,1.96-10.67,1.96-15.97,0-1.97-5.3-1.96-10.67,0-15.97,5.3-1.96,10.67-1.96,15.97,0Z"/>
  <path class="cls-7" d="M223.56,239.56c3.27,1.64,3.13,14.04,0,15.97-5.3,1.97-10.67,1.96-15.97,0-3.27-1.64-3.13-14.04,0-15.97,5.3-1.96,10.67-1.97,15.97,0Z"/>
  <path class="cls-6" d="M207.59,239.56v15.97c-5.31,0-10.66,0-15.97,0,0-5.31,0-10.66,0-15.97,5.31,0,10.66,0,15.97,0Z"/>
  <path class="cls-6" d="M239.53,239.56v15.97c-5.31.03-10.66-.01-15.97,0v-15.97c5.31.01,10.66-.03,15.97,0Z"/>
  <path class="cls-6" d="M175.66,239.56c0,5.31,0,10.66,0,15.97-5.31,0-10.66,0-15.97,0,0-5.31-.04-10.66,0-15.97,5.31,0,10.66,0,15.97,0Z"/>
  <path class="cls-6" d="M255.5,239.56c5.31.04,10.66-.03,15.97,0v15.97c-5.31.03-10.66-.04-15.97,0v-15.97Z"/>
  <path class="cls-6" d="M159.69,255.52v15.97c-5.3,1.96-10.67,1.96-15.97,0v-15.97c5.31,0,10.66,0,15.97,0Z"/>
  <path class="cls-6" d="M335.35,463.12v15.97c-5.31,0-10.66,0-15.97,0v-15.97c5.31,0,10.66,0,15.97,0Z"/>
  <path class="cls-6" d="M175.66,15.99v15.97c-5.31.01-10.66-.03-15.97,0v-15.97c5.31,0,10.66,0,15.97,0Z"/>
  <path class="cls-6" d="M63.88,255.52v15.97h-15.97c0-5.31,0-10.66,0-15.97,5.31-.04,10.66.03,15.97,0Z"/>
  <path class="cls-6" d="M95.81,255.52v15.97h-15.97v-15.97c5.3-1.97,10.67-1.96,15.97,0Z"/>
  <path class="cls-6" d="M303.41,463.12v15.97c-5.31,0-10.66,0-15.97,0v-15.97c5.31,0,10.66,0,15.97,0Z"/>
  <path class="cls-6" d="M127.75,255.52v15.97h-15.97v-15.97c5.3-1.96,10.67-1.96,15.97,0Z"/>
  <path class="cls-6" d="M255.5,223.59v15.97c-5.31-.04-10.66.03-15.97,0v-15.97c5.31-.03,10.66.04,15.97,0Z"/>
  <path class="cls-6" d="M223.56,223.59v15.97c-5.31-.01-10.66,0-15.97,0v-15.97c5.31-.01,10.66.01,15.97,0Z"/>
  <path class="cls-6" d="M191.63,255.52c0,5.31,0,10.66,0,15.97-5.31,0-10.66,0-15.97,0-.01-5.31,0-10.66,0-15.97,5.31,0,10.66,0,15.97,0Z"/>
  <path class="cls-6" d="M191.63,223.59c0,5.31,0,10.66,0,15.97-5.31,0-10.66,0-15.97,0,0-5.31,0-10.66,0-15.97,5.31-.04,10.66.03,15.97,0Z"/>
  <path class="cls-6" d="M223.56,255.52v15.97c-5.31-.01-10.66,0-15.97,0v-15.97c5.31,0,10.66.01,15.97,0Z"/>
  <path class="cls-6" d="M207.59,15.99v15.97c-5.31-.01-10.66,0-15.97,0v-15.97c5.31,0,10.66,0,15.97,0Z"/>
  <path class="cls-6" d="M255.5,255.52v15.97c-5.31-.04-10.66.03-15.97,0v-15.97c5.31-.03,10.66.04,15.97,0Z"/>
  <path class="cls-6" d="M271.47,463.12v15.97c-5.31,0-10.66,0-15.97,0v-15.97c5.31,0,10.66,0,15.97,0Z"/>
  <path class="cls-6" d="M239.53,15.99c.04,5.31-.03,10.66,0,15.97,5.31.04,10.66-.03,15.97,0,.02,5.31-.05,10.66,0,15.97,5.31.04,10.66-.03,15.97,0,.02,5.31-.05,10.66,0,15.97,5.31.01,10.66-.03,15.97,0,.03,5.31-.01,10.66,0,15.97h15.97c.03,5.31.03,10.66,0,15.97-5.31-.03-10.66,0-15.97,0,.01-5.31.01-10.66,0-15.97-5.31,0-10.66,0-15.97,0-.03-5.31.04-10.66,0-15.97-5.31-.01-10.66,0-15.97,0-.03-5.31.04-10.66,0-15.97-5.31-.04-10.66.03-15.97,0,0-5.31.03-10.66,0-15.97-5.31-.04-10.66.03-15.97,0v-15.97c5.31.01,10.66-.03,15.97,0Z"/>
  <path class="cls-6" d="M255.5,207.62c5.31.04,10.66-.03,15.97,0v15.97c-5.31.03-10.66-.04-15.97,0,0-5.31,0-10.66,0-15.97Z"/>
  <path class="cls-6" d="M47.91,271.49c0,5.31,0,10.66,0,15.97h-15.97c.03-5.31-.04-10.66,0-15.97h15.97Z"/>
  <path class="cls-6" d="M239.53,207.62v15.97c-5.31.03-10.66-.01-15.97,0v-15.97c5.31.01,10.66-.03,15.97,0Z"/>
  <path class="cls-6" d="M79.84,271.49v15.97c-5.31.01-10.66,0-15.97,0v-15.97h15.97Z"/>
  <path class="cls-6" d="M207.59,207.62v15.97c-5.31.01-10.66-.03-15.97,0,0-5.31,0-10.66,0-15.97,5.31-.01,10.66,0,15.97,0Z"/>
  <path class="cls-6" d="M111.78,271.49v15.97c-5.31.04-10.66-.03-15.97,0v-15.97h15.97Z"/>
  <path class="cls-6" d="M239.53,463.12v15.97c-5.31,0-10.66,0-15.97,0v-15.97c5.31,0,10.66,0,15.97,0Z"/>
  <path class="cls-6" d="M207.59,271.49v15.97h-15.97c-.01-5.31,0-10.66,0-15.97,5.31,0,10.66,0,15.97,0Z"/>
  <path class="cls-6" d="M159.69,31.96v15.97c-5.31,0-10.66,0-15.97,0v-15.97c5.31-.04,10.66.03,15.97,0Z"/>
  <path class="cls-6" d="M239.53,271.49v15.97c-5.31,0-10.66,0-15.97,0v-15.97c5.31.01,10.66-.03,15.97,0Z"/>
  <path class="cls-6" d="M191.63,31.96v15.97c-5.31,0-10.66,0-15.97,0v-15.97c5.31-.01,10.66,0,15.97,0Z"/>
  <path class="cls-6" d="M255.5,271.49c5.31.04,10.66-.03,15.97,0,.02,5.31-.05,10.66,0,15.97-5.31-.03-10.66.01-15.97,0v-15.97Z"/>
  <path class="cls-6" d="M223.56,31.96c0,5.31,0,10.66,0,15.97-5.31-.01-10.66,0-15.97,0v-15.97c5.31.01,10.66-.03,15.97,0Z"/>
  <path class="cls-6" d="M31.94,287.46c-.03,5.31.01,10.66,0,15.97h15.97c0,5.31,0,10.66,0,15.97h-15.97c0-5.31-.01-10.66,0-15.97h-15.97c-.01-5.31,0-10.66,0-15.97h15.97Z"/>
  <path class="cls-6" d="M255.5,191.65c0,5.31,0,10.66,0,15.97-5.31-.04-10.66.03-15.97,0v-15.97c5.31-.03,10.66.04,15.97,0Z"/>
  <path class="cls-6" d="M63.88,287.46v15.97h-15.97c0-5.31,0-10.66,0-15.97,5.31,0,10.66,0,15.97,0Z"/>
  <path class="cls-6" d="M223.56,191.65v15.97c-5.31-.01-10.66,0-15.97,0v-15.97c5.31.01,10.66.01,15.97,0Z"/>
  <path class="cls-6" d="M95.81,287.46v15.97c-5.31-.01-10.66,0-15.97,0v-15.97c5.31-.01,10.66.03,15.97,0Z"/>
  <path class="cls-6" d="M287.44,447.15v15.97c-5.31,0-10.66,0-15.97,0v-15.97c5.3-1.97,10.67-1.96,15.97,0Z"/>
  <rect class="cls-6" x="207.59" y="287.46" width="15.97" height="15.97"/>
  <path class="cls-6" d="M143.72,15.99v15.97c-5.31.04-10.66-.03-15.97,0-.02,5.31.05,10.66,0,15.97-5.31.01-10.66-.03-15.97,0-.04-5.31.03-10.66,0-15.97-5.31-.02-10.66.05-15.97,0-.03,5.31.01,10.66,0,15.97-5.31.04-10.66-.03-15.97,0-.02,5.31.05,10.66,0,15.97-5.31.04-10.66-.03-15.97,0-.02,5.31.05,10.66,0,15.97-5.31.01-10.66-.03-15.97,0,.04,5.31-.03,10.66,0,15.97,5.31.02,10.66-.05,15.97,0-.03,5.31.01,10.66,0,15.97-5.31.04-10.66-.03-15.97,0-.02,5.31.05,10.66,0,15.97h-15.97c.04,5.31-.03,10.66,0,15.97,5.31.02,10.66-.05,15.97,0-.03,5.31.01,10.66,0,15.97-5.31.04-10.66-.03-15.97,0v15.97c5.31.03,10.66-.04,15.97,0,0,5.31,0,10.66,0,15.97-5.31.04-10.66-.03-15.97,0v15.97c5.31.06,10.66-.09,15.97,0,0-5.31,0-10.66,0-15.97,5.31-.04,10.66.04,15.97,0,4.62-2.46,9.91-2.61,14.84-1.13-1.48-4.93-1.33-10.22,1.13-14.84,10.58-2.7,21.37-2.77,31.94,0,3.27,1.64,3.13,14.04,0,15.97-1.64,3.27-14.04,3.13-15.97,0,3.27,1.64,3.13,14.04,0,15.97-1.64,3.27-14.04,3.13-15.97,0,3.27,1.64,3.13,14.04,0,15.97-1.64,3.27-14.04,3.13-15.97,0-3.27-1.64-3.13-14.04,0-15.97-4.78,2.93-11.27,3.01-15.97,0,1.96,5.3,1.96,10.67,0,15.97h-15.97v15.97c5.31.03,10.66-.04,15.97,0,0,5.31,0,10.66,0,15.97-5.31.04-10.66-.03-15.97,0-.02,5.31.05,10.66,0,15.97h-15.97c-.04-47.89-.11-95.83,0-143.72h15.97c-.12-15.94-.08-31.96,0-47.91,5.31-.04,10.66.03,15.97,0-.08-10.62-.08-21.31,0-31.94,5.31-.09,10.66.06,15.97,0,.06-5.31-.09-10.67,0-15.97,10.62-.08,21.31-.08,31.94,0,.03-5.31-.04-10.66,0-15.97,15.95-.08,31.95.02,47.91,0Z"/>
  <path class="cls-6" d="M255.5,287.46v15.97c-5.31,0-10.66,0-15.97,0v-15.97c5.31,0,10.66-.01,15.97,0Z"/>
  <path class="cls-6" d="M271.47,175.68c-.04,5.31.03,10.66,0,15.97-5.31.02-10.66-.05-15.97,0,0-5.31,0-10.66,0-15.97,5.31-.03,10.66.04,15.97,0Z"/>
  <path class="cls-6" d="M287.44,287.46c-.01,5.31,0,10.66,0,15.97-5.31-.03-10.66.01-15.97,0-.03-5.31.04-10.66,0-15.97,5.31.03,10.66-.04,15.97,0Z"/>
  <path class="cls-6" d="M111.78,47.93c.04,5.31-.03,10.66,0,15.97-5.31.01-10.66-.03-15.97,0,0-5.31-.01-10.66,0-15.97,5.31-.04,10.66.03,15.97,0Z"/>
  <path class="cls-6" d="M239.53,175.68v15.97c-5.31.03-10.66-.01-15.97,0v-15.97c5.31,0,10.66.01,15.97,0Z"/>
  <path class="cls-6" d="M207.59,175.68v15.97c-5.31-.01-10.66.03-15.97,0,0-5.31.01-10.66,0-15.97,5.31,0,10.66,0,15.97,0Z"/>
  <path class="cls-6" d="M79.84,303.43v15.97h-15.97v-15.97c5.31,0,10.66,0,15.97,0Z"/>
  <path class="cls-6" d="M223.56,447.15v15.97c-5.31,0-10.66,0-15.97,0v-15.97c5.31,0,10.66,0,15.97,0Z"/>
  <path class="cls-6" d="M207.59,303.43v15.97c5.31.03,10.66-.01,15.97,0v15.97c5.31.03,10.66-.01,15.97,0v15.97c-5.31,0-10.66-.01-15.97,0v15.97c-5.31,0-10.66,0-15.97,0v15.97c-5.31,0-10.66,0-15.97,0v-15.97c5.3-1.96,10.67-1.96,15.97,0-3.27-1.64-3.13-14.04,0-15.97,5.38-2.5,10.58-2.48,15.97,0-3.27-1.64-3.13-14.04,0-15.97-5.25,2.72-10.73,2.77-15.97,0-3.27-1.64-3.13-14.04,0-15.97-5.25,2.72-10.73,2.77-15.97,0-2.77-5.24-2.72-10.72,0-15.97h15.97Z"/>
  <path class="cls-6" d="M143.72,47.93v15.97c-5.3,1.96-10.67,1.96-15.97,0,2.46,5.38,2.48,10.59,0,15.97,5.25-2.71,10.73-2.75,15.97,0,3.27,1.64,3.13,14.04,0,15.97-5.24,2.75-10.72,2.71-15.97,0,1.95,5.3,1.95,10.67,0,15.97,5.3-1.96,10.67-1.95,15.97,0,3.27,1.64,3.13,14.04,0,15.97,5.38-2.48,10.59-2.5,15.97,0,2.46,5.38,2.47,10.59,0,15.97,5.3-1.96,10.67-1.96,15.97,0v15.97c-5.31,0-10.66,0-15.97,0-.03-5.31,0-10.66,0-15.97-5.31,0-10.66,0-15.97,0v-15.97c-5.31-.01-10.66,0-15.97,0-.01-5.31,0-10.66,0-15.97-5.31,0-10.66,0-15.97,0,0-5.31,0-10.66,0-15.97,5.31-.03,10.66.04,15.97,0,0-5.31-.01-10.66,0-15.97-5.31-.04-10.66.03-15.97,0-.01-5.31.03-10.66,0-15.97,5.31-.01,10.66,0,15.97,0,.03-5.31-.04-10.66,0-15.97,5.31-.01,10.66,0,15.97,0Z"/>
  <path class="cls-6" d="M239.53,303.43v15.97c-5.31,0-10.66.01-15.97,0v-15.97h15.97Z"/>
  <path class="cls-6" d="M271.47,159.71c5.31.04,10.66-.03,15.97,0v15.97c-5.31.03-10.66-.04-15.97,0,.04-5.31-.03-10.66,0-15.97Z"/>
  <path class="cls-6" d="M271.47,303.43c.03,5.31-.01,10.66,0,15.97-5.31,0-10.66,0-15.97,0v-15.97c5.31,0,10.66-.01,15.97,0Z"/>
  <path class="cls-6" d="M223.56,159.71v15.97c-5.31,0-10.66,0-15.97,0v-15.97c5.3-1.96,10.67-1.97,15.97,0Z"/>
  <path class="cls-6" d="M303.41,303.43c.04,5.31,0,10.66,0,15.97-5.31,0-10.66,0-15.97,0,0-5.31,0-10.66,0-15.97,5.31.03,10.66-.04,15.97,0Z"/>
  <path class="cls-6" d="M191.63,159.71c.03,5.31-.01,10.66,0,15.97-5.31,0-10.66.01-15.97,0v-15.97c5.31,0,10.66,0,15.97,0Z"/>
  <path class="cls-6" d="M63.88,319.4c0,5.31,0,10.66,0,15.97h-15.97c0-5.31,0-10.66,0-15.97h15.97Z"/>
  <path class="cls-6" d="M159.69,159.71c.03,5.31-.04,10.66,0,15.97,5.31.03,10.66-.01,15.97,0v15.97c5.31.04,10.66-.03,15.97,0,0,5.31,0,10.66,0,15.97-5.31.01-10.66-.03-15.97,0-3.27-1.64-3.13-14.04,0-15.97-3.6,2.04-15.01,3.24-17.11,1.14s-.9-13.51,1.14-17.11c-5.25,2.72-10.73,2.77-15.97,0v-15.97c5.31,0,10.66,0,15.97,0Z"/>
  <path class="cls-6" d="M95.81,319.4c3.27,1.64,3.13,14.04,0,15.97-5.31.03-10.66,0-15.97,0v-15.97h15.97Z"/>
  <path class="cls-6" d="M351.31,431.18c5.31.04,10.66-.03,15.97,0v15.97c-5.31.03-10.66-.04-15.97,0v15.97c-5.31,0-10.66,0-15.97,0v-15.97c5.31-.03,10.66.04,15.97,0v-15.97Z"/>
  <path class="cls-6" d="M255.5,319.4v15.97c-5.31,0-10.66.01-15.97,0v-15.97c5.31,0,10.66,0,15.97,0Z"/>
  <path class="cls-6" d="M63.88,159.71v15.97c-5.31-.03-10.66.04-15.97,0,0-5.31-.01-10.66,0-15.97,5.31-.04,10.66.03,15.97,0Z"/>
  <path class="cls-6" d="M287.44,319.4v15.97c-5.31-.01-10.66,0-15.97,0,0-5.31.01-10.66,0-15.97,5.31,0,10.66,0,15.97,0Z"/>
  <path class="cls-6" d="M143.72,143.74v15.97c-5.31,0-10.66,0-15.97,0-.04-5.31.03-10.66,0-15.97,5.31,0,10.66,0,15.97,0Z"/>
  <path class="cls-6" d="M319.38,319.4c.04,5.31-.02,10.66,0,15.97-5.31-.04-10.66.03-15.97,0,0-5.31,0-10.66,0-15.97,5.31,0,10.66,0,15.97,0Z"/>
  <path class="cls-6" d="M47.91,335.37c0,5.31-.01,10.66,0,15.97,5.31.03,10.66-.01,15.97,0,0,5.31-.01,10.66,0,15.97h-15.97c-.03-5.31.01-10.66,0-15.97-5.31-.03-10.66.04-15.97,0-.03-5.31.01-10.66,0-15.97h15.97Z"/>
  <path class="cls-6" d="M111.78,143.74v15.97c-5.3,1.96-10.67,1.96-15.97,0v-15.97c5.31,0,10.66,0,15.97,0Z"/>
  <path class="cls-6" d="M79.84,335.37c0,5.31,0,10.66,0,15.97-5.31-.01-10.66.01-15.97,0,0-5.31,0-10.66,0-15.97h15.97Z"/>
  <path class="cls-6" d="M79.84,143.74c-.01,5.31.03,10.66,0,15.97-5.31.01-10.66-.03-15.97,0v-15.97c5.31.03,10.66-.01,15.97,0Z"/>
  <path class="cls-6" d="M335.35,431.18v15.97c-5.31.03-10.66-.01-15.97,0,0,5.31,0,10.66,0,15.97-5.31,0-10.66,0-15.97,0v-15.97c5.3-1.96,10.67-1.95,15.97,0-2.49-5.38-2.51-10.59,0-15.97,5.38-2.48,10.59-2.5,15.97,0Z"/>
  <path class="cls-6" d="M271.47,335.37c0,5.31.01,10.66,0,15.97-5.31,0-10.66,0-15.97,0v-15.97c5.31,0,10.66,0,15.97,0Z"/>
  <path class="cls-6" d="M287.44,127.77c-.04,5.31.03,10.66,0,15.97-5.31.02-10.66-.05-15.97,0-.01,5.31.03,10.66,0,15.97-5.31-.04-10.66.03-15.97,0,0,5.31,0,10.66,0,15.97-5.31.03-10.66-.01-15.97,0v-15.97c5.38-2.48,10.59-2.5,15.97,0-1.96-5.3-1.96-10.67,0-15.97,5.24-2.75,10.72-2.71,15.97,0-1.95-5.3-1.96-10.67,0-15.97,5.31,0,10.66.01,15.97,0Z"/>
  <path class="cls-6" d="M303.41,335.37v15.97c-5.3,1.95-10.67,1.96-15.97,0v-15.97c5.31.01,10.66-.03,15.97,0Z"/>
  <path class="cls-6" d="M127.75,127.77c.01,5.31-.03,10.66,0,15.97-5.31,0-10.66,0-15.97,0v-15.97c5.31,0,10.66,0,15.97,0Z"/>
  <path class="cls-6" d="M319.38,335.37c5.31.04,10.66-.03,15.97,0,.02,5.31-.05,10.66,0,15.97-5.31-.04-10.66.03-15.97,0-.04-5.31.02-10.66,0-15.97Z"/>
  <path class="cls-6" d="M95.81,127.77v15.97c-5.31,0-10.66.01-15.97,0,.01-5.31,0-10.66,0-15.97,5.31,0,10.66,0,15.97,0Z"/>
  <path class="cls-6" d="M95.81,351.34c0,5.31,0,10.66,0,15.97h-15.97c0-5.31,0-10.66,0-15.97,5.31.01,10.66-.03,15.97,0Z"/>
  <path class="cls-6" d="M63.88,127.77c0,5.31,0,10.66,0,15.97-5.31-.03-10.66.04-15.97,0,.03-5.31-.04-10.66,0-15.97h15.97Z"/>
  <path class="cls-6" d="M255.5,351.34v15.97c-5.38,2.46-10.59,2.48-15.97,0l2,1.14c.57,3.29.9,13.41-2,14.83-5.3,1.97-10.67,1.96-15.97,0,3.27,1.64,3.13,14.04,0,15.97h-15.97v-15.97c5.31,0,10.66,0,15.97,0v-15.97c5.31,0,10.66-.01,15.97,0v-15.97c5.31,0,10.66,0,15.97,0Z"/>
  <path class="cls-6" d="M175.66,47.93v15.97c-5.3,1.96-10.67,1.96-15.97,0v-15.97c5.31,0,10.66,0,15.97,0Z"/>
  <path class="cls-6" d="M335.35,351.34c5.31.04,10.66-.03,15.97,0,.02,5.31-.05,10.66,0,15.97,5.31.04,10.66-.03,15.97,0,.02,5.31-.05,10.66,0,15.97-5.3,1.96-10.67,1.97-15.97,0-2.75-5.24-2.71-10.72,0-15.97-5.25,2.71-10.73,2.76-15.97,0-.04-5.31.04-10.66,0-15.97Z"/>
  <path class="cls-6" d="M303.41,111.81c-.04,5.31.03,10.66,0,15.97-5.31,0-10.66-.02-15.97,0,.04-5.31-.03-10.66,0-15.97h15.97Z"/>
  <path class="cls-6" d="M79.84,367.31c0,5.31-.01,10.66,0,15.97-5.31-.01-10.66.03-15.97,0-.03-5.31.01-10.66,0-15.97h15.97Z"/>
  <path class="cls-6" d="M111.78,111.81v15.97c-5.31,0-10.66,0-15.97,0v-15.97c5.31-.01,10.66,0,15.97,0Z"/>
  <path class="cls-6" d="M111.78,367.31v15.97c-5.31,0-10.66,0-15.97,0,0-5.31,0-10.66,0-15.97h15.97Z"/>
  <path class="cls-6" d="M79.84,111.81c0,5.31,0,10.66,0,15.97h-15.97c0-5.31-.01-10.66,0-15.97,5.31-.04,10.66.03,15.97,0Z"/>
  <path class="cls-6" d="M207.59,431.18v15.97c-5.31,0-10.66,0-15.97,0v-15.97c5.31,0,10.66,0,15.97,0Z"/>
  <path class="cls-6" d="M207.59,47.93v15.97c-5.3,1.96-10.67,1.96-15.97,0v-15.97c5.31,0,10.66,0,15.97,0Z"/>
  <path class="cls-6" d="M175.66,431.18v15.97c5.31,0,10.66,0,15.97,0v15.97c-5.31,0-10.66,0-15.97,0-3.27-1.64-3.13-14.04,0-15.97-5.3,1.96-10.67,1.97-15.97,0v-15.97c5.31,0,10.66,0,15.97,0Z"/>
  <path class="cls-6" d="M95.81,383.27c0,5.31-.01,10.66,0,15.97-5.31-.01-10.66.03-15.97,0-.03-5.31.01-10.66,0-15.97,5.31.01,10.66,0,15.97,0Z"/>
  <path class="cls-6" d="M287.44,95.84c-.01,5.31.03,10.66,0,15.97-5.31,0-10.66.03-15.97,0,0-5.31.01-10.66,0-15.97,5.31-.03,10.66,0,15.97,0Z"/>
  <path class="cls-6" d="M127.75,383.27c.03,5.31-.01,10.66,0,15.97-5.31,0-10.66,0-15.97,0v-15.97c5.31,0,10.66,0,15.97,0Z"/>
  <path class="cls-6" d="M159.69,383.27v15.97h-15.97v-15.97c5.3-1.96,10.67-1.96,15.97,0Z"/>
  <path class="cls-6" d="M191.63,383.27v15.97h-15.97c.01-5.31-.03-10.66,0-15.97,5.31,0,10.66,0,15.97,0Z"/>
  <path class="cls-6" d="M239.53,47.93c0,5.31,0,10.66,0,15.97-5.31,0-10.66,0-15.97,0-.04-5.31,0-10.66,0-15.97,5.31.01,10.66-.03,15.97,0Z"/>
  <path class="cls-6" d="M223.56,415.21c3.27,1.64,3.13,14.04,0,15.97,5.3-1.96,10.67-1.96,15.97,0l2,1.14c.57,3.29.9,13.41-2,14.83,5.3-1.96,10.67-1.96,15.97,0v15.97c-5.31,0-10.66,0-15.97,0v-15.97c-5.31,0-10.66,0-15.97,0v-15.97c-5.31,0-10.66,0-15.97,0v-15.97c5.31-.01,10.66.03,15.97,0Z"/>
  <path class="cls-6" d="M95.81,95.84v15.97c-5.31.01-10.66-.03-15.97,0,0-5.31-.01-10.66,0-15.97,5.31.03,10.66,0,15.97,0Z"/>
  <path class="cls-6" d="M111.78,399.24v15.97c-5.31-.01-10.66.03-15.97,0-.03-5.31.01-10.66,0-15.97,5.31.01,10.66,0,15.97,0Z"/>
  <path class="cls-6" d="M95.81,63.9c0,5.31,0,10.66,0,15.97-5.31-.01-10.66,0-15.97,0,.03-5.31-.04-10.66,0-15.97,5.31-.04,10.66.03,15.97,0Z"/>
  <path class="cls-6" d="M143.72,399.24v15.97c-5.31,0-10.66,0-15.97,0,0-5.31.01-10.66,0-15.97,5.31,0,10.66,0,15.97,0Z"/>
  <path class="cls-6" d="M191.63,415.21v15.97c-5.31,0-10.66,0-15.97,0,0-5.31,0-10.66,0-15.97,5.31,0,10.66,0,15.97,0Z"/>
  <path class="cls-6" d="M175.66,399.24c-.01,5.31,0,10.66,0,15.97-5.31,0-10.66,0-15.97,0v-15.97h15.97Z"/>
  <path class="cls-6" d="M111.78,79.87c.01,5.31,0,10.66,0,15.97-5.31.03-10.66,0-15.97,0,0-5.31,0-10.66,0-15.97,5.31.01,10.66-.03,15.97,0Z"/>
  <path class="cls-6" d="M207.59,399.24v15.97c-5.31.01-10.66,0-15.97,0v-15.97h15.97Z"/>
  <path class="cls-6" d="M79.84,79.87c-.03,5.31.01,10.66,0,15.97-5.31-.03-10.66.04-15.97,0,.03-5.31-.04-10.66,0-15.97,5.31-.01,10.66,0,15.97,0Z"/>
  <path class="cls-6" d="M127.75,415.21c0,5.31-.01,10.66,0,15.97,5.31.01,10.66,0,15.97,0v15.97c-5.31-.01-10.66.03-15.97,0-.03-5.31.01-10.66,0-15.97-5.31-.01-10.66.03-15.97,0v-15.97c5.31.01,10.66,0,15.97,0Z"/>
  <path class="cls-6" d="M255.5,63.9c.03,5.31-.01,10.66,0,15.97,5.31.03,10.66,0,15.97,0,.03,5.31-.01,10.66,0,15.97-5.31.03-10.66-.04-15.97,0-1.96-5.3-1.95-10.67,0-15.97-5.25,2.72-10.73,2.77-15.97,0v-15.97c5.31,0,10.66,0,15.97,0Z"/>
  <path class="cls-6" d="M159.69,415.21v15.97c-5.31,0-10.66,0-15.97,0v-15.97c5.31,0,10.66,0,15.97,0Z"/>
  <path class="cls-2" d="M367.28,463.12v15.97c-5.31.01-10.66,0-15.97,0v-15.97c5.31,0,10.66,0,15.97,0Z"/>
  <path class="cls-10" d="M143.72,463.12v15.97c-5.31-.04-10.66.03-15.97,0-.02-5.31.05-10.66,0-15.97,5.31-.04,10.66.03,15.97,0Z"/>
  <path class="cls-7" d="M479.06,79.87c5.31,0,10.66,0,15.97,0v15.97c-5.31.03-10.66-.04-15.97,0-.04,5.31.03,10.66,0,15.97h-15.97c0-5.31,0-10.66,0-15.97,5.31-.04,10.66.04,15.97,0,.04-5.31-.03-10.66,0-15.97Z"/>
  <path class="cls-7" d="M431.16,175.68c-.03,5.31.01,10.66,0,15.97-5.31.04-10.66-.03-15.97,0,.04-5.31-.04-10.66,0-15.97,5.31-.04,10.66.02,15.97,0Z"/>
  <path class="cls-7" d="M415.19,191.65c-.04,5.31.03,10.66,0,15.97-5.31.02-10.66-.05-15.97,0,.02-5.31-.04-10.66,0-15.97,5.31,0,10.66.03,15.97,0Z"/>
  <path class="cls-7" d="M431.16,159.71c5.31,0,10.66,0,15.97,0,0,5.31,0,10.66,0,15.97-5.31.04-10.66-.02-15.97,0,.03-5.31-.04-10.66,0-15.97Z"/>
  <path class="cls-2" d="M479.06,287.46c.03,5.31-.01,10.66,0,15.97h-15.97c-.02-5.31.05-10.66,0-15.97h15.97Z"/>
  <path class="cls-2" d="M479.06,383.27c-.01,5.31.03,10.66,0,15.97-5.31.01-10.66,0-15.97,0,.04-5.31-.03-10.66,0-15.97h15.97Z"/>
  <path class="cls-2" d="M415.19,447.15v15.97c-5.31.03-10.66-.01-15.97,0v-15.97c5.31-.02,10.66.05,15.97,0Z"/>
  <path class="cls-10" d="M383.25,223.59c.01,5.31,0,10.66,0,15.97-5.31.04-10.66-.04-15.97,0,.03-5.31-.01-10.66,0-15.97,5.31,0,10.66,0,15.97,0Z"/>
  <path class="cls-10" d="M367.28,239.56c-.03,5.31.04,10.66,0,15.97-5.31-.03-10.66-.03-15.97,0,.04-5.31-.03-10.66,0-15.97,5.31-.02,10.66.05,15.97,0Z"/>
  <path class="cls-10" d="M351.31,255.52c-.04,5.31.04,10.66,0,15.97-5.31.04-10.66,0-15.97,0-.02-5.31.04-10.66,0-15.97,5.31-.04,10.66.03,15.97,0Z"/>
  <path class="cls-10" d="M399.22,207.62c-.02,5.31.04,10.66,0,15.97-5.31-.01-10.66,0-15.97,0-.01-5.31.03-10.66,0-15.97,5.31,0,10.66.04,15.97,0Z"/>
  <path class="cls-10" d="M335.35,271.49c.02,5.31-.04,10.66,0,15.97-5.31,0-10.66,0-15.97,0,0-5.31,0-10.66,0-15.97,5.31.04,10.66,0,15.97,0Z"/>
  <path class="cls-2" d="M431.16,223.59c.03,5.31-.04,10.66,0,15.97,5.31.04,10.66-.04,15.97,0,.04,5.31-.04,10.66,0,15.97,5.31.04,10.66-.04,15.97,0,.04,5.31-.02,10.66,0,15.97h-15.97c-.02-5.31.05-10.66,0-15.97-5.31-.04-10.66.03-15.97,0-.02-5.31.05-10.66,0-15.97-5.31-.04-10.66.03-15.97,0v-15.97c5.32.03,10.66-.04,15.97,0Z"/>
  <path class="cls-2" d="M463.1,415.21c-.02,5.31.04,10.66,0,15.97-5.31.04-10.66-.04-15.97,0-.04,5.31.04,10.66,0,15.97-5.31.04-10.66-.02-15.97,0v-15.97c5.31-.02,10.66.05,15.97,0,.04-5.31-.03-10.66,0-15.97h15.97Z"/>
  <path class="cls-2" d="M319.38,95.84c.03,5.31-.03,10.66,0,15.97h-15.97c.04-5.31-.03-10.66,0-15.97,5.31.03,10.66-.04,15.97,0Z"/>
  <path class="cls-2" d="M335.35,127.77c.03,5.31-.03,10.66,0,15.97h-15.97c-.02-5.31.05-10.66,0-15.97,5.31,0,10.66-.01,15.97,0Z"/>
  <path class="cls-2" d="M351.31,159.71c.02,5.31-.04,10.66,0,15.97,5.31.04,10.66-.04,15.97,0,.04,5.31-.03,10.66,0,15.97,5.31.04,10.66-.03,15.97,0,.04,5.31-.03,10.66,0,15.97h-15.97c-.01-5.31.03-10.66,0-15.97-5.31-.04-10.66.03-15.97,0-.02-5.31.05-10.66,0-15.97-5.31-.04-10.66.03-15.97,0-.02-5.31.05-10.66,0-15.97h15.97Z"/>
  <path class="cls-2" d="M159.69,447.15c5.31,0,10.66,0,15.97,0v15.97c-10.63.02-21.31-.05-31.94,0v-15.97c5.31.01,10.66,0,15.97,0Z"/>
  <path class="cls-3" d="M95.81,159.71c5.31,0,10.66,0,15.97,0s10.66,0,15.97,0c.04,5.31-.03,10.66,0,15.97,5.31.02,10.66-.05,15.97,0s10.66-.03,15.97,0c.04,5.31-.03,10.66,0,15.97,5.31.02,10.66-.05,15.97,0v15.97c-10.07,2.67-20.48,2.44-30.71,1,1.28,10.33.39,20.67-1.23,30.94-26.48,3-53.37,3.11-79.84,0-5.31-.03-10.66.04-15.97,0,0-5.31,0-10.66,0-15.97,0-5.31,0-10.66,0-15.97,5.31.09,10.66-.06,15.97,0v15.97h15.97v-15.97h15.97v-15.97h15.97v-15.97c-10.63-.04-21.31.06-31.94,0-.04,5.31.03,10.66,0,15.97-5.31.02-10.66-.05-15.97,0v-15.97c5.31.03,10.66-.03,15.97,0,.04-5.31-.03-10.66,0-15.97,5.31-.01,10.66,0,15.97,0Z"/>
  <path class="cls-1" d="M351.31,367.31c.04,5.31-.03,10.66,0,15.97,5.31.01,10.66,0,15.97,0,.08,10.63-.06,21.31,0,31.94-5.31.02-10.66-.05-15.97,0,0,5.31,0,10.66,0,15.97-5.31-.04-10.66.03-15.97,0s-10.66.01-15.97,0c-.04,5.31,0,10.66,0,15.97-5.31.01-10.66,0-15.97,0s-10.66,0-15.97,0-10.66,0-15.97,0-10.66,0-15.97,0-10.66,0-15.97,0v-15.97c-5.31,0-10.66,0-15.97,0v-15.97c5.24-2.75,10.72-2.71,15.97,0,3.27,1.64,3.13,14.04,0,15.97,26.56-2.74,53.28-2.79,79.84,0-2.26-3.39-2.91-15.91-1.01-17.21,4.65-3.17,25.55-.13,32.95,1.24-2.74-10.57-2.7-21.36,0-31.94-1.76.53-3.52,1.02-5.32,1.33-3.63.63-9.32,1.5-11.66-.09-1.9-1.29-1.25-13.82,1.01-17.21,5.31.04,10.66-.04,15.97,0Z"/>
  <path class="cls-5" d="M175.66,207.62c0,5.31,0,10.66,0,15.97-5.31.04-10.66-.03-15.97,0-.02,5.31.05,10.66,0,15.97-5.31,0-10.66,0-15.97,0,0,5.31,0,10.66,0,15.97-5.31,0-10.66,0-15.97,0s-10.66,0-15.97,0-10.66,0-15.97,0-10.66-.01-15.97,0-10.66-.03-15.97,0v-15.97c26.6.13,53.25-.02,79.84,0,0-10.63,0-21.31,0-31.94,10.63-.03,21.31.06,31.94,0Z"/>
  <path class="cls-10" d="M287.44,351.34c5.31,0,10.66-.01,15.97,0,5.31.01,10.66-.03,15.97,0,.04,5.31-.03,10.66,0,15.97,5.31.02,10.66-.05,15.97,0,.04,5.31-.03,10.66,0,15.97,5.31,0,10.66-.02,15.97,0,.05,10.63,0,21.31,0,31.94-10.63.08-21.31-.06-31.94,0-.02,5.31.05,10.66,0,15.97-26.6-.06-53.25.02-79.84,0v-15.97c5.24-2.77,10.72-2.72,15.97,0-3.27-1.64-3.13-14.04,0-15.97,1.64-3.27,14.04-3.13,15.97,0-2.72-5.25-2.77-10.73,0-15.97,5.24-2.77,10.72-2.72,15.97,0-3.27-1.64-3.13-14.04,0-15.97-5.25,2.72-10.73,2.77-15.97,0,2.72,5.25,2.77,10.73,0,15.97-10.41,2.96-21.51,2.88-31.94,0,.78.09,1.93.33,2,.89.66,6,.83,23.82,0,29.6l-2,1.45c-5.31.04-10.66-.03-15.97,0v-31.94c5.31,0,10.66.01,15.97,0v-15.97c5.31.01,10.66-.03,15.97,0s10.66-.04,15.97,0c.03-5.31-.01-10.66,0-15.97,5.31,0,10.66,0,15.97,0Z"/>
  <path class="cls-2" d="M255.5,95.84c0,5.31,0,10.66,0,15.97,5.31.04,10.66-.03,15.97,0,0,5.31,0,10.66,0,15.97s.01,10.66,0,15.97c-5.31.04-10.66-.03-15.97,0,0,5.31,0,10.66,0,15.97-5.31-.03-10.66.01-15.97,0s-10.66,0-15.97,0-10.66,0-15.97,0-10.66,0-15.97,0c-.03-5.31.04-10.66,0-15.97-5.31,0-10.66,0-15.97,0-5.31,0-10.66,0-15.97,0,0-5.31-.03-10.66,0-15.97-5.31-.03-10.66.01-15.97,0v-15.97c5.38-2.48,10.58-2.46,15.97,0,2.71,5.25,2.75,10.73,0,15.97,7.23-1.29,29.94-4.32,32.91-1.27,2.15,2.22,1.16,13.58-.97,17.23,21.18-2.91,42.69-2.82,63.88,0-1.97-10.62-1.96-21.32,0-31.94-5.25,2.71-10.73,2.75-15.97,0-3.27-1.64-3.13-14.04,0-15.97,5.24-2.75,10.72-2.71,15.97,0Z"/>
  <path class="cls-2" d="M271.47,367.31c5.31.04,10.66-.03,15.97,0v15.97c-5.31.03-10.66-.04-15.97,0-.04,5.31.03,10.66,0,15.97h-15.97v15.97c-5.31.03-10.66-.04-15.97,0v-31.94c10.63-.03,21.31.08,31.94,0,.04-5.31-.03-10.66,0-15.97Z"/>
  <path class="cls-4" d="M143.72,63.9c5.31,0,10.66,0,15.97,0,5.31,0,10.66,0,15.97,0s10.66,0,15.97,0,10.66,0,15.97,0,10.66,0,15.97,0c.04,5.31-.03,10.66,0,15.97,5.31.02,10.66-.05,15.97,0,5.31.04,10.66-.03,15.97,0,.01,5.31,0,10.66,0,15.97-5.31.04-10.66-.03-15.97,0v15.97c5.31.03,10.66-.04,15.97,0,0,10.63,0,21.31,0,31.94-21.27.1-42.6-.03-63.88,0-.04-5.31.03-10.66,0-15.97-10.63-.03-21.31.06-31.94,0,.03-5.31-.04-10.66,0-15.97,10.57-2.78,21.36-2.72,31.94,0-3.27-1.64-3.13-14.04,0-15.97,1.64-3.27,14.04-3.13,15.97,0-3.27-1.64-3.13-14.04,0-15.97-.1.77-.31,1.9-.89,2-5.5.87-23.7.61-29.6,0l-1.45-2,2,1.14c.57,3.29.9,13.41-2,14.83-1.64,3.27-14.04,3.13-15.97,0,2.72,5.25,2.77,10.73,0,15.97-5.31.03-10.66-.01-15.97,0s-10.66,0-15.97,0c0-5.31,0-10.66,0-15.97,5.31-.04,10.66.03,15.97,0v-15.97c-5.31-.03-10.66.04-15.97,0,.01-5.31-.03-10.66,0-15.97,5.31,0,10.66,0,15.97,0Z"/>
  <path class="cls-8" d="M143.72,271.49c5.31,0,10.66,0,15.97,0s10.66,0,15.97,0c.01,5.31-.03,10.66,0,15.97,2.58,10.14,2.54,20.66,1.25,30.98,5-1.61,10.01-1.56,14.71.96,2.46,4.62,2.61,9.91,1.13,14.84,4.93-1.48,10.22-1.33,14.84,1.13l2,1.14c.57,3.29.9,13.41-2,14.83-10.14,2.58-20.66,2.54-30.98,1.25,1.61,5,1.56,10.01-.96,14.71-15.95,1.95-31.95,1.96-47.91,0-2.46-4.62-2.61-9.91-1.13-14.84-4.93,1.48-10.22,1.33-14.84-1.13-3.27-1.64-3.13-14.04,0-15.97-5.24,2.77-10.72,2.72-15.97,0v-31.94c5.31.01,10.66-.03,15.97,0v31.94c5.31-.04,10.66.03,15.97,0v-15.97h15.97v-15.97c-10.63-.04-21.31.06-31.94,0v-15.97c5.31-.04,10.66.03,15.97,0,0-5.31,0-10.66,0-15.97,5.31,0,10.66,0,15.97,0Z"/>
  <path class="cls-7" d="M159.69,111.81c.04-5.31-.03-10.66,0-15.97h15.97v-15.97h31.94v15.97h-15.97v15.97c-10.63.04-21.31-.06-31.94,0Z"/>
  <path class="cls-9" d="M191.63,287.46c.01,5.31-.03,10.66,0,15.97s-.04,10.66,0,15.97c5.31.04,10.66-.03,15.97,0v15.97c5.31.04,10.66-.03,15.97,0v15.97c-5.31.01-10.66-.03-15.97,0v15.97c-5.31,0-10.66,0-15.97,0s-10.66,0-15.97,0c-.04,5.31.03,10.66,0,15.97-5.31,0-10.66,0-15.97,0s-10.66,0-15.97,0-10.66,0-15.97,0c-.03-5.31.04-10.66,0-15.97h-15.97v-15.97c-5.31-.04-10.66.03-15.97,0,0-5.31,0-10.66,0-15.97,5.31-.03,10.66.04,15.97,0v15.97c5.31.04,10.66-.03,15.97,0,.02,5.31-.05,10.66,0,15.97,15.95,0,31.95-.01,47.91,0,.04-5.31-.03-10.66,0-15.97,10.63-.03,21.31.06,31.94,0v-15.97c-5.31-.04-10.66.03-15.97,0-.02-5.31.05-10.66,0-15.97-5.31-.04-10.66.03-15.97,0-.03-10.63.06-21.31,0-31.94h15.97Z"/>
</svg>