<?xml version="1.0" encoding="UTF-8"?>
<svg id="Layer_1" data-name="Layer 1" xmlns="http://www.w3.org/2000/svg" viewBox="0 0 30.26 30.34">
  <defs>
    <style>
      .cls-1 {
        fill: #ece7fd;
      }

      .cls-2 {
        fill: #bf9ef9;
      }

      .cls-3 {
        fill: #7428f5;
      }
    </style>
  </defs>
  <path class="cls-2" d="M18.97,7.75c-.51-.34-.49-.81-.46-1.36-1.23.08-2.44.03-3.63-.17-.8-1.69,0-2.74,1.78-2.53-.07-.88.1-1.41.5-1.59.02-.17.07-.43.2-.45,1.1-.21,5.44-.12,6.7,0l.33.45c1.41.65.11,2.85-1.32,2.44l-.03.86c1.29-.03,2.03.39,1.78,1.8,1.08.3,1.32.12,1.16-1.01l.44-.26c-1.73,1.61-3.11-1.15-1.83-2.19.87-.71,3.35.68,1.83,2.19.58-.61,1.23-.62,1.81,0,.18.02.44.08.45.2.05.81.2,6.64,0,6.92-.11.17-.25.28-.45.33-.02.43-.48.59-1.38.49.44,1.23-.81,2.18-1.94,1.77s-.95-3.03-.3-4.07q.43-.43,0,0c-.7.58-1.34.58-2.03,0-.32-.53-.58-1.04-.28-1.58-.5.42-1.1.25-1.53-.23-.57-.39-.64-1.26-.24-1.77-.49.37-1.16.21-1.56-.27Z"/>
  <path class="cls-2" d="M11.29,22.88c.74,1.63.68,3.98,0,5.65-.37.74-3.18.71-3.61,0-.67-1.11-.7-2.76,0-3.84.41-.47,1.07-.64,1.56-.27-.41-.46-.27-1.19.25-1.54.58-.63,1.23-.62,1.81,0Z"/>
  <path class="cls-1" d="M7.68,19.04c.54.45.64,1.21.25,1.77.49-.38,1.15-.21,1.55.26.58.62.58,1.18,0,1.81-.35.51-1.08.65-1.55.26.39.47.25,1.2-.26,1.55.08.72-1.99.57-2.29.28-.32-.3-.4-2.05.26-2.09-.37.74-3.18.71-3.61,0-.66.05-.56-3.37-.45-3.52s.25-.27.45-.32c1.7-.67,3.97-.73,5.65,0Z"/>
  <path class="cls-2" d="M16.94,19.04c.54-.54,1.56-.63,2.23-.28.2.1.38,2.68.3,3.07-.26,1.21-.76,1.67-2.1,1.52.26,1.55-.33,1.93-1.81,1.82.85,1.69-2.19,2.27-2.53,1.51-.38-.86-.29-3.02.3-3.81.35-.51,1.08-.65,1.55-.26-.39-.48-.26-1.18.26-1.55.41-.47,1.07-.64,1.56-.27-.4-.5-.32-1.38.24-1.77Z"/>
  <path class="cls-3" d="M20.78,9.78c.6,0,1.21,0,1.81,0,0,.6,0,1.21,0,1.81-.6-.02-1.21.01-1.81,0-.01-.6.02-1.21,0-1.81Z"/>
  <path class="cls-3" d="M9.49,22.88c-.02.6.01,1.21,0,1.81-.6,0-1.21-.01-1.81,0,.01-.6-.01-1.21,0-1.81.6-.01,1.21.02,1.81,0Z"/>
  <path class="cls-3" d="M18.97,7.75c-.33,0-1.96-.07-2.03,0-.13.13.2,1.76-.13,1.81h-1.68s0-1.81,0-1.81h-3.61c.06-.33-.08-1.73,0-1.81.09-.09,1.49.09,1.58,0,.1-.1-.1-1.94,0-2.04s1.94.1,2.04,0-.1-1.71,0-1.81,1.71.1,1.81,0c.21-.21-.49-1.84.56-2.03.63-.12,6.62-.1,6.9.1.45.31.08,1.81.21,1.94.1.1,1.71-.1,1.81,0s-.1,1.71,0,1.81,1.94-.1,2.04,0-.1,1.94,0,2.04c.08.08,1.47-.06,1.81,0v7.68c-2.92-.37-1.32.7-1.84,1.55-.23.37-1.93.19-2,.26-.09.09.1,1.71,0,1.81s-1.71-.1-1.81,0,.1,1.94,0,2.04-1.71-.1-1.81,0,.1,1.71,0,1.81-1.94-.1-2.04,0,.1,1.71,0,1.81-1.71-.1-1.81,0,.1,1.94,0,2.04-1.71-.1-1.81,0,.1,1.71,0,1.81-1.94-.1-2.04,0,.1,1.71,0,1.81-1.71-.1-1.81,0c-.08.08.06,1.47,0,1.81H0v-13.1c.33-.06,1.73.08,1.81,0,.1-.1-.1-1.94,0-2.04s1.94.1,2.04,0-.1-1.71,0-1.81,1.71.1,1.81,0-.1-1.71,0-1.81,1.71.1,1.81,0c.11-.11-.18-1.43.1-1.82.31-.45,1.81-.09,1.94-.21.29-.29-.81-2.38,1.81-1.81v2.03s3.84,0,3.84,0c0,.6,0,1.21,0,1.81-.35,0-1.74-.06-1.81,0-.12.12.24,1.62-.21,1.94-.37.26-1.5,0-1.6.1-.11.11.23,1.41-.21,1.71-.39.27-1.71-.01-1.82.1-.1.1.1,1.72,0,1.81-.06.06-1.46,0-1.81,0,0-.38-.07-1.96,0-2.03.1-.1,1.71.1,1.81,0s-.1-1.71,0-1.81c.08-.08,1.47.06,1.81,0v-1.81h-3.61c-.06.33.08,1.73,0,1.81-.1.1-1.71-.1-1.81,0-.13.13.24,1.62-.21,1.94-.93.65-2.23-1.05-1.83,1.78.03.22,3.38.14,3.84.13-.01.6-.01,1.21,0,1.81-1.88-.04-3.77.03-5.65,0v3.84h3.61c.06.33-.08,1.73,0,1.81.07.07,1.71,0,2.03,0-.03,1.28.02,2.56,0,3.84h3.61c-.03-1.88.04-3.77,0-5.65.68,0,1.36.02,2.03,0-.03,1.2.02,2.41,0,3.61h1.81c.06-.33-.08-1.73,0-1.81.1-.1,1.71.1,1.81,0s-.1-1.71,0-1.81c.13-.13,1.62.24,1.94-.21.34-.49-.05-2.88.1-3.63-.68.01-1.36-.01-2.03,0,.01-.35-.06-1.74,0-1.81.08-.08,1.48.06,1.81,0v-1.81c-.33-.06-1.73.08-1.81,0-.1-.1.1-1.94,0-2.04s-1.72.1-1.81,0c-.06-.06,0-1.46,0-1.81.33,0,1.96-.07,2.03,0,.1.1-.1,1.71,0,1.81s1.71-.1,1.81,0c.08.08-.06,1.47,0,1.81h1.68c.33-.05,0-1.68.13-1.81.1-.1,1.72.1,1.81,0,.06-.06,0-1.49,0-1.81.67.02,1.36.02,2.03,0,.01-.6-.01-1.21,0-1.81h1.81s0,1.81,0,1.81c-.6.01-1.21-.02-1.81,0-.03,1.2.02,2.41,0,3.61h1.81c.06-.33-.08-1.73,0-1.81s1.47.06,1.81,0v-7.45c-.6,0-1.21,0-1.81,0,0-.6,0-1.21,0-1.81h-1.81s0,1.81,0,1.81c.6,0,1.21-.01,1.81,0,0,.35.11,1.78-.13,1.81-.34-.07-1.82.08-1.9,0-.1-.1.1-1.71,0-1.81-.08-.08-1.47.06-1.81,0,.06-.33-.08-1.73,0-1.81.31-.31,2.42.87,1.81-2.03h-7.23c-.06.49.19,1.66-.21,1.93-.95.66-2.24-1.09-1.82,1.91h3.84c.01.6-.02,1.21,0,1.81Z"/>
  <path class="cls-3" d="M16.94,19.04c-.02.67.02,1.36,0,2.03-.6,0-1.21,0-1.81,0,.02-.67-.02-1.36,0-2.03.6,0,1.21.01,1.81,0Z"/>
  <path class="cls-3" d="M15.13,21.08c-.02.6.01,1.21,0,1.81-.6.01-1.21-.02-1.81,0,.01-.6-.01-1.21,0-1.81.6,0,1.21,0,1.81,0Z"/>
  <path class="cls-3" d="M7.68,19.04c.6.01,1.21-.01,1.81,0,0,.68-.02,1.36,0,2.03-.6,0-1.21,0-1.81,0,0-.68.02-1.36,0-2.03Z"/>
  <path class="cls-3" d="M9.49,21.08c.6,0,1.21,0,1.81,0,0,.6-.02,1.21,0,1.81-.6,0-1.21-.02-1.81,0,.02-.6.01-1.21,0-1.81Z"/>
  <path class="cls-3" d="M18.97,7.75c.6.01,1.21,0,1.81,0,.01.67-.02,1.36,0,2.03-.6,0-1.21,0-1.81,0-.01-.67.02-1.36,0-2.03Z"/>
  <path class="cls-2" d="M2.03,24.69h1.81c.06.36-.09,1.95,0,2.03s1.47-.06,1.81,0v1.81h-3.61v-3.84Z"/>
  <rect class="cls-2" x="20.78" y="15.43" width="1.81" height="3.61"/>
</svg>