<?xml version="1.0" encoding="UTF-8"?>
<svg id="Layer_1" data-name="Layer 1" xmlns="http://www.w3.org/2000/svg" viewBox="0 0 28.46 28.46">
  <defs>
    <style>
      .cls-1 {
        fill: #bf9ef9;
      }

      .cls-2 {
        fill: #7428f5;
      }
    </style>
  </defs>
  <path class="cls-1" d="M26.42,18.46c.31-3.28.42-6.57.28-9.87-.03-.82-.81-1.49-1.58-1.51-.01-.09-.01-.18,0-.28,0-1.07-.92-1.57-1.78-1.41-.04,0-.08,0-.12,0-.12-.36-.27-.7-.47-1.04-.17-.29-.43-.48-.73-.6-.02-.18-.04-.37-.09-.55-.38-1.47-1.66-1.95-3.05-1.91-3.35.09-6.7.18-10.05.2-.99,0-1.55.85-1.46,1.75-.57-.29-1.31-.25-1.76.25-.03.03-.1.12-.19.23.05-.37.08-.73.07-1.11-.02-.77-.67-1.55-1.5-1.5-1.4.08-2.27,1.05-2.3,2.46-.02.81-.02,1.72.19,2.54-.41,1.52-.8,3.04-.26,4.64.51,1.52,1.71,1.65,3.13,1.6,1.4-.05,2.79-.13,4.18-.23.6.08,1.24,0,1.9-.28,1.36-.59.68-2.91-.76-2.8-.32.02-.64.04-.97.06-.03-.04-.06-.06-.09-.1.29-.21.54-.42.6-.48.42-.42.7-.93.82-1.51.02-.12.05-.28.06-.43.61.04,1.44-.18,2.01-.22.75-.06,1.49-.12,2.24-.17,1.23-.08,2.46-.12,3.68-.17-.22.92.34,1.93,1.41,1.92.16,0,.31-.02.46-.04-.01.03-.02.06-.03.1-.23.64.16,1.35.69,1.69.34.22.72.34,1.1.37,0,.07,0,.13,0,.2-.08.78-.11,1.55-.09,2.31-.07,1.94-.12,3.87-.13,5.81-.74.16-1.34.9-1.16,1.81-.89.03-1.68.28-2.04,1.08-.18.41-.2.81-.11,1.21-.15.08-.3.16-.43.27-.08-.03-.15-.07-.23-.11-.9-.38-1.87-.41-2.84-.5-.99-.09-1.98-.18-2.96-.27-.54-.05-1.38,0-2.02-.19-.04-.13-.09-.27-.18-.39-.33-.48-1.08-1.24-1.78-1.32.04-.49-.16-.99-.71-1.32-.46-.28-.92-.47-1.47-.46-.19,0-.37.04-.54.1-.82-.14-1.76.4-1.82,1.44-.01.23.04.45.11.65.06.31.02.52-.11.89-.33.95.51,1.81,1.39,1.89.01.09.03.19.04.28.11.41.31.73.62,1,.26.22.52.36.85.45.03,0,.07,0,.1.02-.02.47.19.93.72,1.2.29.42.61.78,1.17.94.95.27,2.11.17,3.09.2,2.16.06,4.32-.02,6.48-.2.37-.03.66-.17.89-.37.41.12.86.16,1.3.09.71-.11,1.09-.83,1.07-1.52,1.14.23,2.01-.88,1.82-1.82l.43.03c1.1.08,1.92-1.35,1.3-2.26-.03-.04-.05-.08-.08-.11,0,0,0,0,0,0,0,0,.01,0,.02,0,.24.03.48.05.71.08,1.45.15,1.96-1.95.89-2.71Z"/>
  <g>
    <path class="cls-2" d="M7.68,2.03c0-.68,0-1.36,0-2.03l12.96.03c.7.18.21,1.85.37,2,.1.1,1.71-.1,1.81,0s-.1,1.71,0,1.81,1.71-.1,1.81,0-.1,1.71,0,1.81c.13.13,1.62-.24,1.94.21.66.95-1.09,2.25,1.91,1.82v13.33c-.33.06-1.73-.08-1.81,0-.1.1.1,1.71,0,1.81-.07.07-1.65-.01-2.03,0-.02.6.01,1.21,0,1.81h-1.81s0-1.81,0-1.81c.6-.01,1.21.02,1.81,0,.01-.38-.07-1.96,0-2.03.08-.08,1.47.06,1.81,0V7.68c-.33-.06-1.73.08-1.81,0-.1-.1.1-1.71,0-1.81s-1.94.1-2.04,0,.1-1.71,0-1.81-1.71.1-1.81,0c-.09-.09.06-1.68,0-2.04-4.36-.07-8.74.1-13.1,0,0,.34.07,1.96,0,2.03-.1.1-1.71-.1-1.81,0s.1,1.71,0,1.81c-.08.08-1.68-.06-2.03,0v-3.84c-.6,0-1.21.01-1.81,0-.07,3.15.06,6.33,0,9.49h9.26v-1.81h-3.61c.06-.36-.08-1.95,0-2.03.1-.1,1.71.1,1.81,0,.08-.08-.06-1.47,0-1.81h9.49c.06.33-.08,1.73,0,1.81.1.1,1.94-.1,2.04,0s-.1,1.71,0,1.81c.08.08,1.47-.06,1.81,0v9.49c-3-.42-1.24.87-1.91,1.82-.31.45-1.81.09-1.94.21-.08.08.06,1.47,0,1.81h-9.49c-.06-.33.08-1.73,0-1.81-.1-.1-1.71.1-1.81,0-.07-.07.01-1.65,0-2.03-1.2-.02-2.41.02-3.61,0v3.84c0,.09,1.55-.07,1.81,0,0,1.9-.17,1.97-2.03,1.81-.06-.33.08-1.73,0-1.81s-1.47.06-1.81,0v-3.84c.33-.06,1.73.08,1.81,0,.13-.13-.2-1.76.13-1.81h3.71c.01.6-.02,1.21,0,1.81.38,0,1.96-.07,2.03,0,.08.08-.06,1.47,0,1.81h9.26c.06-.33-.08-1.73,0-1.81s1.47.06,1.81,0v-9.26c-.33-.06-1.73.08-1.81,0s.06-1.47,0-1.81h-5.65v3.61c-.33.06-1.73-.08-1.81,0s.06,1.47,0,1.81H0V2.03c.67.01,1.36-.01,2.03,0,.01-.6-.01-1.21,0-1.81h3.84c.06.33-.08,1.73,0,1.81.06.06,1.46,0,1.81,0Z"/>
    <rect class="cls-2" x="7.68" y="26.65" width="13.1" height="1.81"/>
    <rect class="cls-2" x="5.87" y="24.62" width="1.81" height="1.81"/>
    <rect class="cls-2" x="21" y="24.84" width="1.58" height="1.58"/>
  </g>
</svg>