<?xml version="1.0" encoding="UTF-8"?>
<svg id="Layer_1" data-name="Layer 1" xmlns="http://www.w3.org/2000/svg" viewBox="0 0 28.46 30.61">
  <defs>
    <style>
      .cls-1 {
        fill: #9158f3;
      }

      .cls-2 {
        fill: #ece7fd;
      }

      .cls-3 {
        fill: #bf9ef9;
      }

      .cls-4 {
        fill: #7428f5;
      }
    </style>
  </defs>
  <path class="cls-1" d="M23.23,18.88c-.49-.71-.52-1.6-.83-2.38-.08-.22-.19-.42-.3-.61.34-.09.64-.29.85-.64.31-.53.28-1.41-.23-1.82-.4-.32-.77-.65-1.14-.99.17-1.1-.65-1.81-1.69-1.75-.49-.54-.97-1.09-1.44-1.64-.06-.08-.13-.15-.2-.23-1.25-1.44-2.53-2.86-4.07-4.03-.07-.19-.18-.37-.32-.51-.36-.36-.79-.47-1.21-.4-.13-.07-.27-.13-.42-.19-.75-.31-1.65.33-1.85,1.05-.06.23-.07.45-.03.65-.85.68-1.69,1.38-2.48,2.15-.63.61-.5,1.5,0,2.12,1.68,2.09,3.54,4.03,5.58,5.76.46.39.95.76,1.39,1.18.51.48.82,1.06,1.24,1.62.36.48.79.9,1.33,1.17.24.12.51.17.77.21.04.07.08.14.11.22,0,0,0,.02,0,.03,0,.25-.03.48-.08.72-.17.74-.42,1.3-.23,2.09.24,1,1.37,1.31,2.2.9.68-.34,1.24-.83,1.68-1.44.23-.32.34-.68.47-1.04.85-.3,1.5-1.29.89-2.18Z"/>
  <g>
    <path class="cls-3" d="M15.13,22.79c.4-.54,1.96-.62,2.3-.25.39.43.33,3.47-.27,4.09-.11.42-.65.59-1.6.49.11.57-.02,1.37-.42,1.72-.19.16-2,.07-2.12-.21-.39-.93-.28-3.17.3-4.03.35-.51,1.08-.65,1.55-.26-.39-.48-.26-1.18.26-1.55Z"/>
    <path class="cls-3" d="M24.62,13.31c.35-.54,1.77-.61,2.08-.24.39.47.31,3.45-.27,4.08-.36.54-1.77.61-2.08.24-.39-.47-.31-3.45.27-4.08Z"/>
    <path class="cls-2" d="M2.03,13.31c.11-.43.65-.59,1.6-.47-.22-1.44.39-1.97,1.81-1.82v-1.3c1.27-1,3.04-.61,2.71,1.36,1.43-.3,1.94.46,1.81,1.81,1.69-.31,1.86.57,1.82,2.02,1.51-.14,2.23.19,2.02,1.82,1.44-.3,1.91.46,1.82,1.81,2.37-.53,2.6,3.23-.06,2.73.18.83.03,1.34-.42,1.54-.41.47-1.07.64-1.56.27.41.46.27,1.19-.25,1.54-1.63.74-3.98.67-5.65,0,1.27,2.02-.86,2.93-2.2,1.83-.4-1.77.35-3.12,2.2-1.83-.41-.11-.57-.57-.47-1.38-1.87.3-1.89-.43-1.81-2.03-1.55.26-1.93-.33-1.82-1.81-1.37.15-2.26.17-2.09-1.53l.08-4.26.46-.28Z"/>
    <path class="cls-2" d="M13.33,2.02c0-.18.04-.44.16-.46.85-.09,7.07-.24,7.34,0,.44.41.44,1.38.43,2.05,1.55-.26,1.93.33,1.82,1.81,1.52-.23,2.21.24,2.03,1.8.76-.18,1.21-.03,1.32.43.65.11.59,3,.45,3.52l-.45.32c-.02.43-.48.59-1.38.49.16.74.02,1.18-.42,1.32-.84,1.22-2.65.28-2.28-1.38-1.58.32-1.91-.59-1.79-1.99-1.51.05-2.27-.15-2.05-1.85-1.43.3-1.94-.46-1.81-1.81-.94.15-1.18.05-1.81-.54v-1.48c-1.76.37-2.82-1.06-1.56-2.25Z"/>
    <path class="cls-4" d="M15.13,22.79c-.02.6.01,1.21,0,1.81-.6,0-1.21-.02-1.81,0,.01-.6-.01-1.21,0-1.81.6,0,1.21.01,1.81,0Z"/>
    <path class="cls-4" d="M2.03,13.31c-.02.75-.2,5.45,0,5.65.1.1,1.94-.1,2.04,0s-.1,1.71,0,1.81,1.71-.1,1.81,0-.1,1.94,0,2.04,1.72-.1,1.81,0c.06.06,0,1.49,0,1.81-.6.01-1.21-.01-1.81,0v1.81s1.81,0,1.81,0c0-.6,0-1.21,0-1.81,1.88-.04,3.77.04,5.65,0-.03,1.28.02,2.56,0,3.84h1.81c.06-.33-.08-1.73,0-1.81.07-.07,1.65.01,2.03,0,0,.35.06,1.74,0,1.81-.09.09-1.71-.1-1.81,0-.16.16.34,1.77-.37,2-1.53.5-5.5-.31-7.31.03.01-.68-.01-1.36,0-2.03,1.2.02,2.41-.02,3.61,0v-1.81h-3.62c0,.6.01,1.21,0,1.81-.38,0-1.96.07-2.03,0-.1-.1.1-1.71,0-1.81s-1.71.1-1.81,0,.1-1.71,0-1.81-1.71.1-1.81,0c-.07-.07,0-1.71,0-2.03.6-.01,1.21,0,1.81,0v-1.81s-1.81,0-1.81,0c0,.6.01,1.21,0,1.81-.68.01-1.36,0-2.03,0v-9.15c0-.48,1.63-.32,2.03-.34Z"/>
    <path class="cls-4" d="M13.33,2.02c0-.6,0-1.21,0-1.81l7.31-.21c.7.22.22,1.87.37,2.02.1.1,1.71-.1,1.81,0s-.1,1.71,0,1.81,1.71-.1,1.81,0-.1,1.71,0,1.81c.13.13,1.62-.24,1.94.21.66.95-1.09,2.25,1.91,1.82v9.49c-.68,0-1.36.01-2.03,0,.03-1.28-.02-2.56,0-3.84-.6,0-1.21,0-1.81,0,0-.35-.06-1.74,0-1.81.08-.08,1.47.06,1.81,0v-3.84c-.33-.06-1.73.08-1.81,0-.1-.1.1-1.71,0-1.81s-1.94.1-2.04,0,.1-1.71,0-1.81-1.71.1-1.81,0,.1-1.94,0-2.04c-.26-.26-6.49-.02-7.45,0Z"/>
    <path class="cls-4" d="M13.33,2.02c0,.32-.06,1.74,0,1.81.11.11,1.43-.18,1.82.1.45.31.08,1.81.21,1.94.1.1,1.71-.1,1.81,0s-.1,1.71,0,1.81,1.71-.1,1.81,0-.1,1.71,0,1.81c.13.13,1.62-.24,1.94.21.27.39-.01,1.71.1,1.82.1.1,1.71-.1,1.81,0s-.1,1.72,0,1.81c.06.06,1.46,0,1.81,0-.03,1.28.02,2.56,0,3.84.6,0,1.21-.01,1.81,0,0,.35.06,1.74,0,1.81-.09.1-1.71-.1-1.81,0-.08.08.06,1.47,0,1.81h-1.81s-.13-1.81-.13-1.81c-.34.07-1.82-.08-1.9,0-.1.1.1,1.71,0,1.81s-1.71-.1-1.81,0c-.07.07-.07,1.96,0,2.04.08.08,1.47-.06,1.81,0v1.81c-.33.06-1.73-.08-1.81,0-.1.1.1,1.94,0,2.04-.06.06-1.46-.01-1.81,0,.03-1.28-.02-2.56,0-3.84-.68.01-1.36-.01-2.03,0,.01-.38-.07-1.96,0-2.03.08-.08,1.48.06,1.81,0v-1.81c-.33-.06-1.73.08-1.81,0-.1-.1.1-1.71,0-1.81s-1.71.1-1.81,0,.1-1.71,0-1.81c-.11-.11-1.43.18-1.82-.1-.45-.31-.08-1.81-.21-1.94-.1-.1-1.71.1-1.81,0s.1-1.71,0-1.81-1.71.1-1.81,0c-.08-.08.06-1.47,0-1.81h-1.81c-.06.33.08,1.73,0,1.81-.1.1-1.71-.1-1.81,0s.1,1.71,0,1.81c-.07.07-1.65-.02-2.03,0,0-.35-.06-1.74,0-1.81.09-.1,1.71.1,1.81,0s-.1-1.94,0-2.04,1.71.1,1.81,0-.1-1.71,0-1.81c.07-.07,1.7,0,2.03,0,0,.32-.06,1.74,0,1.81.11.11,1.43-.18,1.82.1.45.31.08,1.81.21,1.94.1.1,1.71-.1,1.81,0s-.1,1.71,0,1.81,1.71-.1,1.81,0-.1,1.71,0,1.81c.13.13,1.62-.24,1.94.21.27.39-.01,1.71.1,1.82.1.1,1.71-.1,1.81,0,.08.08-.06,1.47,0,1.81h1.81c.06-.33-.08-1.73,0-1.81.1-.1,1.71.1,1.81,0,.11-.11-.18-1.43.1-1.82.3-.44,1.6-.1,1.71-.21.08-.08-.06-1.48,0-1.81-.33-.06-1.73.08-1.81,0-.1-.1.1-1.71,0-1.81s-1.71.1-1.81,0,.1-1.71,0-1.81c-.11-.11-1.43.18-1.82-.1-.45-.31-.08-1.81-.21-1.94-.1-.1-1.71.1-1.81,0s.1-1.71,0-1.81-1.71.1-1.81,0c-.08-.08.06-1.47,0-1.81h-1.81c-.06.33.08,1.73,0,1.81-.1.1-1.71-.1-1.81,0s.1,1.71,0,1.81c-.07.07-1.7,0-2.03,0,0-.32-.06-1.74,0-1.81.09-.1,1.71.1,1.81,0s-.1-1.94,0-2.04,1.71.1,1.81,0-.1-1.71,0-1.81c.07-.07,1.66,0,2.03,0Z"/>
    <rect class="cls-4" x="21" y="20.99" width="1.58" height="1.81"/>
    <rect class="cls-2" x="4.06" y="22.79" width="1.58" height="1.81"/>
  </g>
</svg>