<?xml version="1.0" encoding="UTF-8"?>
<svg id="Layer_1" data-name="Layer 1" xmlns="http://www.w3.org/2000/svg" viewBox="0 0 28.48 28.48">
  <defs>
    <style>
      .cls-1 {
        fill: #ece7fd;
      }

      .cls-2 {
        fill: #bf9ef9;
      }

      .cls-3 {
        fill: #7428f5;
      }
    </style>
  </defs>
  <path class="cls-3" d="M21.47,0c.09.09-.09,1.61,0,1.7s1.61-.09,1.7,0c.08.08-.05,1.39,0,1.7h3.29c.52,0,.24,1.83.32,1.91.07.08,1.39-.05,1.7,0v21.25c-.31.05-1.63-.08-1.7,0-.17.17.4,1.92-.53,1.91H5.84c-.93,0-.36-1.75-.53-1.91-.09-.09-1.61.09-1.7,0s.09-1.61,0-1.7-1.82.1-1.92,0,.1-1.82,0-1.92c-.08-.08-1.39.05-1.7,0V1.7c.31-.05,1.63.08,1.7,0s-.05-1.39,0-1.7h19.77Z"/>
  <rect class="cls-1" x="1.91" y="1.7" width="19.34" height="21.25"/>
  <polygon class="cls-1" points="26.57 5.31 26.57 26.57 5.53 26.57 5.53 24.87 23.17 24.87 23.17 5.31 26.57 5.31"/>
  <rect class="cls-2" x="3.48" y="4.25" width="16.23" height="1.91"/>
  <rect class="cls-2" x="3.48" y="11.48" width="16.23" height="1.7"/>
  <rect class="cls-2" x="3.48" y="7.86" width="16.23" height="1.7"/>
  <rect class="cls-2" x="3.46" y="18.7" width="16.23" height="1.7"/>
  <rect class="cls-2" x="3.46" y="15.09" width="16.23" height="1.7"/>
  <rect class="cls-2" x="17.75" y="4.24" width="1.91" height="16.21"/>
  <rect class="cls-2" x="10.74" y="4.24" width="1.7" height="16.21"/>
  <rect class="cls-2" x="14.35" y="4.24" width="1.7" height="16.21"/>
  <rect class="cls-2" x="3.51" y="4.23" width="1.7" height="16.21"/>
  <rect class="cls-2" x="7.13" y="4.23" width="1.7" height="16.21"/>
</svg>