<?xml version="1.0" encoding="UTF-8"?>
<svg id="Layer_1" xmlns="http://www.w3.org/2000/svg" version="1.1" viewBox="0 0 28.5 28.5">
  <!-- Generator: Adobe Illustrator 29.8.1, SVG Export Plug-In . SVG Version: 2.1.1 Build 2)  -->
  <defs>
    <style>
      .st0 {
        fill: #ece6ff;
      }

      .st1 {
        fill: #7428f5;
      }
    </style>
  </defs>
  <path class="st0" d="M26.4,18.5c.3-3.3.4-6.6.3-9.9,0-.8-.8-1.5-1.6-1.5,0,0,0-.2,0-.3,0-1.1-.9-1.6-1.8-1.4h-.1c-.1-.4-.3-.7-.5-1-.2-.3-.4-.5-.7-.6,0-.2,0-.4,0-.5-.4-1.5-1.7-2-3-1.9-3.4,0-6.7.2-10.1.2-1,0-1.6.9-1.5,1.8-.6-.3-1.3-.2-1.8.2,0,0,0,.1-.2.2,0-.4,0-.7,0-1.1,0-.8-.7-1.5-1.5-1.5-1.4,0-2.3,1-2.3,2.5,0,.8,0,1.7.2,2.5-.4,1.5-.8,3-.3,4.6.5,1.5,1.7,1.6,3.1,1.6,1.4,0,2.8-.1,4.2-.2.6,0,1.2,0,1.9-.3,1.4-.6.7-2.9-.8-2.8-.3,0-.6,0-1,0,0,0,0,0,0-.1.3-.2.5-.4.6-.5.4-.4.7-.9.8-1.5,0-.1,0-.3,0-.4.6,0,1.4-.2,2-.2.8,0,1.5-.1,2.2-.2,1.2,0,2.5-.1,3.7-.2-.2.9.3,1.9,1.4,1.9.2,0,.3,0,.5,0,0,0,0,0,0,.1-.2.6.2,1.4.7,1.7.3.2.7.3,1.1.4v.2c0,.8-.1,1.6,0,2.3,0,1.9-.1,3.9-.1,5.8-.7.2-1.3.9-1.2,1.8-.9,0-1.7.3-2,1.1-.2.4-.2.8-.1,1.2-.1,0-.3.2-.4.3,0,0-.1,0-.2-.1-.9-.4-1.9-.4-2.8-.5-1,0-2-.2-3-.3-.5,0-1.4,0-2-.2,0-.1,0-.3-.2-.4-.3-.5-1.1-1.2-1.8-1.3,0-.5-.2-1-.7-1.3-.5-.3-.9-.5-1.5-.5-.2,0-.4,0-.5.1-.8-.1-1.8.4-1.8,1.4,0,.2,0,.5.1.6,0,.3,0,.5-.1.9-.3,1,.5,1.8,1.4,1.9,0,0,0,.2,0,.3.1.4.3.7.6,1,.3.2.5.4.8.5,0,0,0,0,0,0,0,.5.2.9.7,1.2.3.4.6.8,1.2.9.9.3,2.1.2,3.1.2,2.2,0,4.3,0,6.5-.2.4,0,.7-.2.9-.4.4.1.9.2,1.3,0,.7-.1,1.1-.8,1.1-1.5,1.1.2,2-.9,1.8-1.8h.4c1.1.1,1.9-1.3,1.3-2.2,0,0,0,0,0-.1h0c.2,0,.5,0,.7,0,1.5.1,2-2,.9-2.7h0Z"/>
  <g>
    <path class="st1" d="M7.7,2V0h13c.7.2.2,1.9.4,2,.1,0,1.7-.1,1.8,0,0,.1-.1,1.7,0,1.8s1.7,0,1.8,0-.1,1.7,0,1.8c.1.1,1.6-.2,1.9.2.7.9-1.1,2.2,1.9,1.8v13.3c-.3,0-1.7,0-1.8,0s.1,1.7,0,1.8c0,0-1.6,0-2,0,0,.6,0,1.2,0,1.8h-1.8v-1.8c.6,0,1.2,0,1.8,0,0-.4,0-2,0-2,0,0,1.5,0,1.8,0V7.7c-.3,0-1.7,0-1.8,0-.1,0,.1-1.7,0-1.8s-1.9,0-2,0,.1-1.7,0-1.8-1.7,0-1.8,0c0,0,0-1.7,0-2-4.4,0-8.7,0-13.1,0,0,.3,0,2,0,2,0,0-1.7,0-1.8,0s0,1.7,0,1.8-1.7,0-2,0v-3.8c-.6,0-1.2,0-1.8,0,0,3.1,0,6.3,0,9.5h9.3v-1.8h-3.6c0-.4,0-1.9,0-2s1.7,0,1.8,0c0,0,0-1.5,0-1.8h9.5c0,.3,0,1.7,0,1.8.1,0,1.9,0,2,0s-.1,1.7,0,1.8,1.5,0,1.8,0v9.5c-3-.4-1.2.9-1.9,1.8-.3.5-1.8,0-1.9.2,0,0,0,1.5,0,1.8h-9.5c0-.3,0-1.7,0-1.8s-1.7.1-1.8,0c0,0,0-1.6,0-2-1.2,0-2.4,0-3.6,0v3.8c0,0,1.6,0,1.8,0,0,1.9-.2,2-2,1.8,0-.3,0-1.7,0-1.8s-1.5,0-1.8,0v-3.8c.3,0,1.7,0,1.8,0,.1-.1-.2-1.8.1-1.8h3.7c0,.6,0,1.2,0,1.8.4,0,2,0,2,0s0,1.5,0,1.8h9.3c0-.3,0-1.7,0-1.8s1.5,0,1.8,0v-9.3c-.3,0-1.7,0-1.8,0s0-1.5,0-1.8h-5.6v3.6c-.3,0-1.7,0-1.8,0s0,1.5,0,1.8H0V2c.7,0,1.4,0,2,0,0-.6,0-1.2,0-1.8h3.8c0,.3,0,1.7,0,1.8s1.5,0,1.8,0Z"/>
    <rect class="st1" x="7.7" y="26.6" width="13.1" height="1.8"/>
    <rect class="st1" x="5.9" y="24.6" width="1.8" height="1.8"/>
    <rect class="st1" x="21" y="24.8" width="1.6" height="1.6"/>
  </g>
</svg>